<?xml version="1.0" encoding="UTF-8"?>
<svg version="1.1" xmlns="http://www.w3.org/2000/svg" width="1373" height="396">
<path d="M0 0 C453.09 0 906.18 0 1373 0 C1373 130.68 1373 261.36 1373 396 C919.91 396 466.82 396 0 396 C0 265.32 0 134.64 0 0 Z " fill="#010101" transform="translate(0,0)"/>
<path d="M0 0 C1.10859375 0.46277344 2.2171875 0.92554688 3.359375 1.40234375 C33.1307556 14.46725219 55.75855323 39.79946263 68.48828125 69.46875 C69.31616696 71.62176546 70.1192066 73.78453453 70.89453125 75.95703125 C71.94906975 78.85980684 73.16553797 81.62473853 74.4375 84.4375 C79.89319223 97.5277301 82.95928608 111.55977738 85.3125 125.5 C85.47177979 126.44133789 85.63105957 127.38267578 85.79516602 128.35253906 C88.20253561 143.58462303 88.18634654 158.8110253 88.18530273 174.19360352 C88.18748871 177.79390299 88.2056982 181.39389509 88.22460938 184.99414062 C88.2637113 200.90272467 87.75203898 216.18497831 83.78125 231.6796875 C83.1186301 234.49582209 82.60128349 237.27512125 82.1171875 240.125 C81.02303105 246.252899 79.38793694 252.15989009 77.625 258.125 C77.18800781 259.65447266 77.18800781 259.65447266 76.7421875 261.21484375 C69.34514755 286.48806357 55.05613078 309.89667576 36 328 C35.3915625 328.59167969 34.783125 329.18335938 34.15625 329.79296875 C11.60331847 350.91591368 -17.96803616 357.90322585 -48.02880859 357.140625 C-76.33361256 355.80097282 -99.6043411 344.23409709 -120 325 C-120.67675781 324.38769531 -121.35351562 323.77539062 -122.05078125 323.14453125 C-132.18965163 313.6152122 -139.5914057 301.24016957 -146 289 C-146.36480469 288.30841797 -146.72960937 287.61683594 -147.10546875 286.90429688 C-153.77298851 274.08126826 -158.28142092 260.94656748 -162 247 C-162.20995605 246.21802246 -162.41991211 245.43604492 -162.63623047 244.63037109 C-165.92606123 232.05127982 -167.33716049 219.26217315 -168.67456055 206.34985352 C-168.94727214 203.85302738 -168.94727214 203.85302738 -170 201 C-170.10652159 199.45126781 -170.1585832 197.89847327 -170.17700195 196.34619141 C-170.18964584 195.39790466 -170.20228973 194.44961792 -170.21531677 193.47259521 C-170.22289505 192.44265442 -170.23047333 191.41271362 -170.23828125 190.3515625 C-170.2480751 189.27972717 -170.25786896 188.20789185 -170.26795959 187.10357666 C-170.43217188 164.43267563 -170.58067755 142.29125514 -166 120 C-165.77505859 118.87045898 -165.55011719 117.74091797 -165.31835938 116.57714844 C-158.97095367 85.32098398 -147.65423419 56.65315778 -127 32 C-126.34386719 31.20851562 -125.68773437 30.41703125 -125.01171875 29.6015625 C-121.47202259 25.42428131 -121.47202259 25.42428131 -120 24 C-119.34 24 -118.68 24 -118 24 C-118 23.34 -118 22.68 -118 22 C-115.99893831 20.19357045 -114.0001455 18.52528694 -111.875 16.875 C-111.24263428 16.38362549 -110.61026855 15.89225098 -109.95874023 15.38598633 C-99.33495886 7.3026458 -87.68445909 1.18722526 -75 -3 C-74.36239746 -3.21172852 -73.72479492 -3.42345703 -73.06787109 -3.64160156 C-50.70005107 -10.66528628 -21.36491939 -9.98497951 0 0 Z " fill="#000000" transform="translate(822,23)"/>
<path d="M0 0 C0.65265986 -0.00326884 1.30531972 -0.00653768 1.97775716 -0.00990558 C4.16991049 -0.01720129 6.3613998 -0.00301427 8.55351257 0.01104736 C10.12415175 0.01025655 11.69479074 0.00815948 13.26542664 0.00485229 C17.54147593 -0.00029371 21.81728554 0.01328763 26.09329629 0.0303793 C30.58468295 0.04543356 35.0760667 0.04424212 39.56747437 0.04504395 C47.13105843 0.04874201 54.69455207 0.06371886 62.25810242 0.08624268 C71.90209018 0.11490733 81.54600435 0.12544832 91.1900301 0.12992477 C99.53453881 0.13394341 107.87903215 0.146454 116.22352958 0.16027164 C118.87497468 0.16432946 121.52641927 0.16727622 124.17786598 0.17006683 C173.08796352 0.23030955 173.08796352 0.23030955 190.22416687 2.67999268 C191.16453796 2.80897949 192.10490906 2.93796631 193.07377625 3.07086182 C207.82216319 5.1694612 222.27773089 8.27798138 236.59916687 12.36749268 C237.66006531 12.63948486 238.72096375 12.91147705 239.81401062 13.19171143 C262.12230283 19.28581844 283.20966691 34.16750363 294.88432312 54.18780518 C297.21489895 58.50919179 299.09346602 62.69578691 300.59916687 67.36749268 C300.97041687 68.39745361 301.34166687 69.42741455 301.72416687 70.48858643 C304.61368132 79.80927715 304.99138208 88.81876367 305.03666687 98.55499268 C305.0466571 99.81343994 305.05664734 101.07188721 305.06694031 102.36846924 C304.86872245 123.99686956 297.19939171 142.48039925 282.41166687 158.11749268 C272.30638392 167.78708192 260.3292567 173.87269684 247.59916687 179.36749268 C246.71615906 179.75678955 245.83315125 180.14608643 244.92338562 180.54718018 C225.27173658 188.84525784 203.52701967 191.17756592 182.59916687 194.36749268 C183.64072937 194.63561768 184.68229187 194.90374268 185.75541687 195.17999268 C196.4503792 198.05597008 205.90641106 202.04489631 215.59916687 207.36749268 C216.63557312 207.92307861 217.67197937 208.47866455 218.73979187 209.05108643 C229.86044869 215.25070393 240.11673281 222.88037861 249.53666687 231.42999268 C250.30817078 232.12753662 250.30817078 232.12753662 251.09526062 232.83917236 C252.3065809 233.97057915 253.45939183 235.16404305 254.59916687 236.36749268 C254.59916687 237.02749268 254.59916687 237.68749268 254.59916687 238.36749268 C255.58916687 238.69749268 256.57916687 239.02749268 257.59916687 239.36749268 C273.40409966 255.13514968 282.68150981 278.54247787 293.01713562 298.04278564 C301.75201128 314.44083491 311.32328916 331.20630937 324.59916687 344.36749268 C325.42416687 345.25436768 326.24916687 346.14124268 327.09916687 347.05499268 C340.40920863 359.3667813 351.73659957 362.4019485 369.59916687 363.36749268 C370.73197937 368.14874268 370.73197937 368.14874268 369.53666687 370.11749268 C364.93613764 373.08557605 358.82765698 372.56220169 353.50932312 372.64093018 C352.73638916 372.65354889 351.9634552 372.6661676 351.167099 372.6791687 C316.69025091 373.13241423 286.69319909 367.14150589 259.59916687 344.36749268 C258.74967468 343.70620361 257.9001825 343.04491455 257.02494812 342.36358643 C254.83364452 340.56043644 253.05308754 338.77651122 251.22416687 336.61749268 C248.63208388 333.56633592 248.63208388 333.56633592 245.94682312 330.59796143 C233.0316606 316.64958591 225.05501168 299.18069947 216.59916687 282.36749268 C215.87652627 280.93779726 215.15387297 279.50810827 214.43119812 278.07843018 C212.49883015 274.23138182 210.5837541 270.37628303 208.68901062 266.51055908 C195.41695347 239.44926441 180.97119988 212.50324284 151.59916687 200.36749268 C150.45061218 199.89182861 149.3020575 199.41616455 148.11869812 198.92608643 C138.56529032 195.40232413 129.08653999 194.94866765 118.99760437 194.73077393 C117.59613217 194.69344282 116.19468288 194.65524113 114.79325867 194.6161499 C111.39535358 194.52472973 107.99747634 194.44206929 104.59916687 194.36749268 C104.61298296 214.04779787 104.65525869 233.7278467 104.73125744 253.40801239 C104.76588552 262.54622558 104.7912601 271.68428827 104.79472351 280.8225708 C104.79776644 288.7890963 104.81830109 296.7553536 104.85969144 304.72177553 C104.88099339 308.93858326 104.89363659 313.15500997 104.88532066 317.37187195 C104.87776257 321.34475591 104.89367363 325.316869 104.92722702 329.28961182 C104.93543928 330.74398019 104.93523499 332.19842553 104.92576408 333.65278625 C104.87835516 341.73623424 104.96445758 348.16719147 110.59916687 354.36749268 C114.82563463 358.06731205 119.19140567 357.80814324 124.54838562 357.80889893 C125.40221329 357.82210678 126.25604095 357.83531464 127.13574219 357.84892273 C129.85275097 357.88970513 132.56942177 357.91146874 135.28666687 357.92999268 C138.01452213 357.95376327 140.74205842 357.98181607 143.46972656 358.02177429 C145.16459006 358.04617503 146.85962352 358.06099801 148.55465698 358.06538391 C154.37460425 358.14293005 154.37460425 358.14293005 156.59916687 360.36749268 C156.06345258 363.90320696 156.06345258 363.90320696 154.59916687 365.36749268 C152.52816699 365.46871468 150.45365797 365.49827002 148.38018799 365.50120544 C147.72329277 365.503471 147.06639754 365.50573656 146.3895964 365.50807077 C144.17240772 365.51443772 141.95527974 365.51357969 139.73808289 365.51275635 C138.15499288 365.51574616 136.57190361 365.51914827 134.98881531 365.52293396 C130.6768904 365.53179622 126.36498532 365.534113 122.05305219 365.53474975 C118.45940373 365.53569699 114.86575993 365.53937313 111.27211326 365.54292184 C102.79706299 365.55107484 94.32202335 365.5535053 85.8469696 365.55279541 C77.09066889 365.55219437 68.33442974 365.56274945 59.57814461 365.57853907 C52.07241988 365.59159371 44.56671531 365.59698018 37.06097931 365.59634 C32.57283266 365.5960844 28.08474069 365.59896946 23.5966053 365.60951805 C19.37694274 365.61916422 15.15738749 365.61930231 10.93772125 365.61200142 C9.38566622 365.61095122 7.83360462 365.61334404 6.2815609 365.61936188 C4.16928882 365.62702383 2.05739276 365.62247606 -0.05487061 365.61473083 C-1.83106104 365.61554799 -1.83106104 365.61554799 -3.64313412 365.61638165 C-6.40083313 365.36749268 -6.40083313 365.36749268 -8.40083313 363.36749268 C-7.86511884 359.83177839 -7.86511884 359.83177839 -6.40083313 358.36749268 C-3.73384507 358.24431585 -1.08877048 358.18136323 1.57963562 358.15655518 C3.23524418 358.12846998 4.890843 358.09980542 6.5464325 358.07061768 C9.16206927 358.02946127 11.77752736 357.99258512 14.39335632 357.96612549 C16.91416874 357.93840061 19.43414757 357.89251074 21.95463562 357.84405518 C23.11747322 357.83917587 23.11747322 357.83917587 24.30380249 357.834198 C29.11354867 357.72609609 32.41336854 356.97542515 36.59916687 354.36749268 C41.07075068 349.65420163 41.72258295 346.13520727 41.73059464 339.80079842 C41.73635635 338.09102198 41.73635635 338.09102198 41.74223447 336.3467046 C41.74136799 335.09399954 41.7405015 333.84129448 41.73960876 332.55062866 C41.74219271 331.20676681 41.74520595 329.86290573 41.74861217 328.51904571 C41.7566818 324.82274986 41.75847171 321.12647343 41.75920963 317.43016982 C41.76106021 313.44507943 41.76860749 309.45999912 41.77534485 305.47491455 C41.78892766 296.76015184 41.79495259 288.04539373 41.79935551 279.3306222 C41.80211758 273.89050734 41.80635483 268.45039426 41.81085968 263.01028061 C41.82305146 247.95167973 41.83335149 232.89308027 41.83673477 217.83447456 C41.83695434 216.87068315 41.8371739 215.90689174 41.83740012 214.91389453 C41.8376184 213.94778664 41.83783668 212.98167875 41.83806157 211.98629487 C41.83850504 210.02856262 41.8389516 208.07083038 41.83940125 206.11309814 C41.83973339 204.65644132 41.83973339 204.65644132 41.84007224 203.17035709 C41.84402179 187.42865149 41.86148099 171.68699214 41.88476077 155.94530441 C41.90846228 139.78822965 41.92093605 123.63117812 41.92210269 107.47408569 C41.92302004 98.40052578 41.92878755 89.32702615 41.9469223 80.25348282 C41.96230698 72.52866511 41.96745336 64.80392632 41.9591842 57.07909621 C41.95527211 53.13709692 41.95623447 49.19525664 41.97024155 45.25327682 C41.98294685 41.64470459 41.98181288 38.0364114 41.96965083 34.42783974 C41.966758 32.5038046 41.97865504 30.5797648 41.99107289 28.65576756 C41.94946131 21.42524363 41.49316473 16.59345605 36.50273132 11.03057861 C32.37888121 8.6685449 28.82108823 8.76471769 24.14213562 8.75811768 C23.23917252 8.74158142 22.33620941 8.72504517 21.40588379 8.70800781 C18.53274198 8.65957211 15.6601293 8.6381668 12.78666687 8.61749268 C10.83416636 8.58932928 8.88169044 8.55940133 6.929245 8.52764893 C2.15259585 8.45381431 -2.62376032 8.4042126 -7.40083313 8.36749268 C-8.06083313 6.71749268 -8.72083313 5.06749268 -9.40083313 3.36749268 C-6.73019417 -0.21869383 -4.29796075 -0.00538424 0 0 Z " fill="#FCFCFC" transform="translate(996.4008331298828,14.63250732421875)"/>
<path d="M0 0 C0.79418335 -0.00540298 1.5883667 -0.01080597 2.40661621 -0.01637268 C5.0354533 -0.02888733 7.66319955 -0.01233351 10.29199219 0.00561523 C12.13124651 0.00546013 13.97050116 0.00396918 15.80975342 0.00120544 C19.67344544 -0.0001804 23.53676719 0.01239589 27.40039062 0.03515625 C32.30888558 0.06330222 37.21675423 0.06087161 42.12529373 0.04806614 C45.93134725 0.04103941 49.73726115 0.04898097 53.54329681 0.06132317 C55.34985566 0.0657872 57.15642979 0.06621953 58.96298981 0.06225777 C74.85178785 0.04375108 89.05246176 2.02384447 104.08886719 7.50170898 C105.50232422 7.94256836 105.50232422 7.94256836 106.94433594 8.39233398 C123.21998193 14.13430102 137.36047359 24.06130759 150.08886719 35.50170898 C151.29542969 36.5806543 151.29542969 36.5806543 152.52636719 37.68139648 C179.21801307 62.94313276 194.4126663 102.97327278 197.69433594 138.93139648 C197.86206496 142.3366618 197.86206496 142.3366618 199.08886719 144.50170898 C200.05962493 150.30838934 200.23814664 156.14313802 200.22167969 162.01733398 C200.22263641 162.79502136 200.22359314 163.57270874 200.22457886 164.3739624 C200.2252541 166.0075285 200.22344599 167.64109739 200.21923828 169.2746582 C200.21391011 171.73191588 200.21919069 174.18898835 200.22558594 176.64624023 C200.22973211 185.64531143 199.97001317 194.53749573 199.08886719 203.50170898 C199.02119141 204.24146973 198.95351563 204.98123047 198.88378906 205.7434082 C196.54566483 229.99843408 189.17211465 255.31767993 177.08886719 276.50170898 C176.73711426 277.13222168 176.38536133 277.76273437 176.02294922 278.41235352 C157.15640141 312.04992437 128.3942069 334.47355796 91.33886719 345.25170898 C70.64502082 350.69702333 50.06461704 350.95123575 28.82141113 350.82427979 C25.72639287 350.81069865 22.63151731 350.81605205 19.53648281 350.82140827 C16.53990727 350.82474454 13.54342038 350.81813038 10.54686165 350.80827904 C9.12392705 350.80444677 7.70098261 350.80327059 6.27804375 350.80486488 C4.30537547 350.80523576 2.33272046 350.79113423 0.36010742 350.77636719 C-0.75791763 350.7717598 -1.87594269 350.7671524 -3.02784729 350.7624054 C-5.91154844 350.5016714 -7.52804025 350.11102087 -9.91113281 348.50170898 C-12.19637073 345.0738521 -12.16290268 343.84855157 -12.16840172 339.81821537 C-12.17485061 338.62687113 -12.1812995 337.43552689 -12.18794382 336.20808131 C-12.18484661 334.89273494 -12.18174941 333.57738857 -12.17855835 332.22218323 C-12.18229292 330.81588542 -12.18689366 329.40958969 -12.19228899 328.00329727 C-12.20455826 324.12983742 -12.20425394 320.25646368 -12.20190024 316.38298881 C-12.20149307 312.20908827 -12.21252164 308.03521572 -12.22201538 303.86132812 C-12.23864744 295.68081879 -12.24412591 287.50033827 -12.24524014 279.31981344 C-12.24618949 272.67279378 -12.25029412 266.02578366 -12.25664139 259.37876701 C-12.27425917 240.54665209 -12.28347932 221.71455999 -12.28198044 202.88243676 C-12.28190053 201.86661837 -12.28182062 200.85079998 -12.28173828 199.80419922 C-12.28165652 198.78714533 -12.28157476 197.77009144 -12.28149052 196.72221773 C-12.28067728 180.23219577 -12.29982307 163.74226507 -12.32801501 147.25226951 C-12.35671239 130.33360304 -12.37055707 113.41498112 -12.36882746 96.49628967 C-12.36816251 86.99240163 -12.37370082 77.48860929 -12.39518356 67.98474312 C-12.41335395 59.89421159 -12.41777689 51.80381914 -12.40416472 43.7132761 C-12.39761424 39.58314387 -12.3975923 35.45327878 -12.41487122 31.32317162 C-12.43051575 27.54497086 -12.42782767 23.76725095 -12.41030295 19.98906254 C-12.40574636 17.96905424 -12.42095767 15.94903152 -12.43678224 13.92908007 C-12.42298585 12.13815209 -12.42298585 12.13815209 -12.40891075 10.31104374 C-12.40934549 9.27831178 -12.40978022 8.24557982 -12.41022813 7.18155295 C-11.12491249 0.28017516 -6.04165887 -0.07830421 0 0 Z " fill="#000000" transform="translate(135.9111328125,22.498291015625)"/>
<path d="M0 0 C0.70821606 0.00377932 1.41643213 0.00755865 2.14610928 0.0114525 C3.27332608 0.00571418 3.27332608 0.00571418 4.42331493 -0.00014007 C6.95652726 -0.01050606 9.4895144 -0.00647059 12.02274197 -0.0025093 C13.83490334 -0.00685504 15.64706286 -0.01203772 17.45921963 -0.01799697 C22.40359713 -0.03144538 27.3478984 -0.03195684 32.29229063 -0.02943367 C36.44189304 -0.02836316 40.59148009 -0.03325182 44.74107921 -0.03803909 C54.57293415 -0.04916438 64.40475095 -0.0495614 74.23660916 -0.04352492 C84.287957 -0.03754629 94.33916267 -0.04963119 104.39048624 -0.07109499 C113.06874906 -0.08892717 121.74696764 -0.09467709 130.42524803 -0.09145725 C135.58464984 -0.08967064 140.7439514 -0.09200593 145.90333623 -0.10617179 C165.71196193 -0.15562568 185.44021715 0.010413 205.19803494 1.54485399 C205.93518912 1.59887986 206.67234329 1.65290573 207.43183547 1.70856875 C216.9633087 2.43012569 226.02091865 4.00278869 235.28642625 6.35640317 C238.29077455 7.10912723 241.27061196 7.75903572 244.31644315 8.31121141 C249.65722411 9.34367203 254.77334221 10.96787801 259.94144315 12.64714891 C260.86183377 12.93847703 261.7822244 13.22980516 262.73050565 13.52996141 C289.95156288 22.27137134 314.16235794 36.6773639 334.94144315 56.27214891 C335.95271268 57.20414109 335.95271268 57.20414109 336.9844119 58.15496141 C354.27229264 74.64918695 367.74963893 97.73883938 374.1328494 120.65496141 C374.79434513 122.79603457 375.5814852 124.89792417 376.40238065 126.98308641 C378.11265087 131.49356177 379.10131422 136.04211493 380.00394315 140.77214891 C380.1731326 141.65596238 380.34232205 142.53977586 380.51663846 143.45037156 C381.00481986 146.05541665 381.47585368 148.66298345 381.94144315 151.27214891 C382.17218533 152.52769578 382.40292752 153.78324266 382.6406619 155.07683641 C387.09986503 183.98259292 382.9457572 211.5009169 374.94144315 239.27214891 C374.68943143 240.17715135 374.43741971 241.08215379 374.17777127 242.01458055 C372.67447931 247.28161447 370.83545319 252.0981802 368.31644315 256.95964891 C367.96944363 257.63753465 367.62244412 258.31542039 367.26492947 259.01384813 C349.3330491 293.56385931 322.47859735 320.22027347 287.94144315 338.27214891 C287.34911893 338.58877488 286.75679471 338.90540086 286.14652127 339.23162156 C271.80177196 346.8877517 256.6383253 352.16137243 240.94144315 356.27214891 C240.14544705 356.48226609 239.34945096 356.69238328 238.52933377 356.90886766 C206.40970408 365.15748851 173.54936742 365.88360155 140.59638423 365.74358779 C135.45788056 365.72563957 130.31938219 365.72954847 125.18085355 365.73030931 C116.60066094 365.72845797 108.02061308 365.71136189 99.44046658 365.68377 C89.52406106 365.65199904 79.60781134 365.64178662 69.69135863 365.64324111 C59.06945096 365.64458833 48.447603 365.63076812 37.82571334 365.6123479 C34.77853706 365.60808802 31.73137039 365.60666617 28.68419141 365.60587007 C23.92479145 365.60386912 19.16552324 365.59172524 14.40616673 365.57153779 C12.65897237 365.56567962 10.91176286 365.5632387 9.16455907 365.56439286 C6.78921312 365.56536878 4.41424086 365.55411999 2.03894681 365.53957444 C0.9931088 365.54422025 0.9931088 365.54422025 -0.07385725 365.54895991 C-4.83018906 365.5005167 -4.83018906 365.5005167 -7.05855685 363.27214891 C-6.68355685 360.64714891 -6.68355685 360.64714891 -6.05855685 358.27214891 C-4.98484836 358.2628032 -3.91113986 358.2534575 -2.80489475 358.24382859 C1.21553192 358.203665 5.23521439 358.137836 9.25516385 358.06462938 C10.9881388 358.03657153 12.72123812 358.01528216 14.4543826 358.00115281 C28.02277062 358.52222046 28.02277062 358.52222046 39.94144315 353.27214891 C44.03571973 347.37671495 43.35911533 341.02342663 43.32239407 334.13884813 C43.32585219 332.78500759 43.33061779 331.43116988 43.33657581 330.07733804 C43.34909446 326.36268479 43.34291157 322.64826289 43.33361715 318.93360883 C43.32683052 314.92536621 43.33730597 310.91716341 43.34555691 306.90892869 C43.35890057 299.059009 43.3560137 291.20917534 43.34731899 283.35925227 C43.34054534 276.97976711 43.33962435 270.60030607 43.34289044 264.22081834 C43.34335014 263.31304513 43.34380984 262.40527192 43.34428347 261.46999043 C43.34524264 259.62589802 43.34621528 257.78180561 43.34720124 255.93771321 C43.35575699 238.64343849 43.34591811 221.34921147 43.32980014 204.05494457 C43.3163968 189.21391067 43.31872484 174.37294716 43.33255643 159.53191453 C43.34860898 142.29975362 43.354933 125.06763451 43.34571964 107.83546716 C43.34476398 105.99813794 43.34382087 104.16080871 43.34289044 102.32347947 C43.34242761 101.4194655 43.34196479 100.51545154 43.34148794 99.5840432 C43.33889707 93.21181872 43.34327112 86.83962075 43.3503291 80.46740037 C43.35874068 72.70236193 43.35647117 64.93741448 43.34048687 57.17238647 C43.33259954 53.21012916 43.32952038 49.24802358 43.33943433 45.28576738 C43.34837223 41.6587576 43.3434635 38.03204025 43.32750167 34.40505701 C43.32256198 32.47118631 43.33235851 30.53729533 43.34267336 28.60344583 C43.36925438 20.48676317 43.36925438 20.48676317 39.94144315 13.27214891 C34.58836023 9.2508311 30.33250039 8.68252153 23.76175565 8.69793016 C22.9083862 8.68376558 22.05501675 8.66960099 21.17578763 8.65500718 C18.47254162 8.61334137 15.76996416 8.59790146 13.06644315 8.58464891 C10.34180714 8.55560724 7.61733985 8.52114782 4.89282864 8.48215562 C3.20241586 8.45963138 1.51189783 8.44383444 -0.17864352 8.43531114 C-5.94893467 8.38177109 -5.94893467 8.38177109 -7.05855685 7.27214891 C-7.24605685 4.83464891 -7.24605685 4.83464891 -7.05855685 2.27214891 C-4.62301882 -0.16338913 -3.32380588 0.03014743 0 0 Z M106.94144315 12.27214891 C106.3455446 15.0091236 106.3455446 15.0091236 106.44087189 18.07869035 C106.4310576 19.27202564 106.42124331 20.46536093 106.41113162 21.6948579 C106.42073663 23.00729142 106.43034163 24.31972494 106.4402377 25.67192918 C106.43634597 27.07909328 106.43070655 28.48625345 106.4234668 29.8934043 C106.40867552 33.76472047 106.41891489 37.63563142 106.43320352 41.5069347 C106.4442887 45.68014297 106.43237887 49.85329325 106.42336148 54.02649766 C106.40941022 62.20357716 106.41699907 70.3805025 106.43203706 78.55757469 C106.44887539 88.07494699 106.44568966 97.59228066 106.44194298 107.10966325 C106.43606095 124.08817275 106.45024944 141.06660815 106.47489041 158.04509813 C106.49881219 174.52982691 106.50589511 191.01445667 106.49539822 207.49919969 C106.48399539 225.43889478 106.4820511 243.37854403 106.49649632 261.31823856 C106.4980222 263.23026893 106.49954256 265.14229931 106.50105733 267.05432969 C106.50181514 267.9951485 106.50257296 268.9359673 106.50335373 269.90529576 C106.50810147 276.54343076 106.50624166 283.18154534 106.50199193 289.81968004 C106.49707115 297.90652343 106.50302326 305.9932731 106.52288622 314.08009499 C106.53277494 318.20815657 106.53784639 322.33607527 106.52999371 326.46414453 C106.52295712 330.24039956 106.52969375 334.01636579 106.54759734 337.79258263 C106.55358273 339.81153018 106.54479617 341.83050467 106.53555083 343.84943992 C106.54399077 345.04277521 106.55243071 346.2361105 106.56112641 347.46560746 C106.56215554 348.49779735 106.56318467 349.52998724 106.56424499 350.59345561 C107.00077493 353.69349685 107.76504983 355.04884441 109.94144315 357.27214891 C113.21705273 358.36401877 115.65044657 358.4122615 119.09915799 358.43328172 C121.00923138 358.44769304 121.00923138 358.44769304 122.95789212 358.46239549 C124.35605312 358.46725169 125.75421623 358.47152848 127.15238065 358.47527391 C127.86259995 358.47810128 128.57281926 358.48092866 129.30456036 358.48384172 C133.08293913 358.49885714 136.86127968 358.50806435 140.63968533 358.51238328 C143.72542046 358.5167252 146.81086923 358.53044375 149.89652127 358.55339891 C194.40945703 358.87806767 235.18972205 351.38187737 268.94144315 320.27214891 C269.82445096 319.48324266 270.70745877 318.69433641 271.6172244 317.88152391 C279.33995124 310.63915806 285.24087389 302.1370093 290.94144315 293.27214891 C291.41759061 292.53271043 291.89373807 291.79327195 292.38431424 291.03142625 C301.74515742 276.13755789 306.90307575 259.9855778 311.94144315 243.27214891 C312.19538846 242.46825731 312.44933377 241.6643657 312.7109744 240.83611375 C318.98288185 220.92857927 319.21711995 199.22869073 319.19144315 178.52214891 C319.19075833 177.72555864 319.19007352 176.92896837 319.18936795 176.108239 C319.16199061 166.48373356 319.08988818 156.96923884 317.00394315 147.52214891 C316.20712429 143.74162148 315.60024894 139.97354445 315.06644315 136.14714891 C309.00989876 96.7337275 289.54961781 57.37666975 257.25443143 32.99871141 C244.66581486 23.8710136 231.43809071 16.61819112 216.24613065 13.06121141 C212.94144315 12.27214891 212.94144315 12.27214891 210.26175565 11.29558641 C198.88347361 7.7883983 187.31343006 7.94586799 175.53519315 7.93621141 C173.67862475 7.92977279 171.82205734 7.92304367 169.965491 7.91603929 C166.09937814 7.90413919 162.23335424 7.90035172 158.3672244 7.90154344 C153.41289746 7.90174804 148.45913504 7.87426861 143.5049426 7.83999902 C139.68226105 7.81779421 135.85971787 7.81370366 132.03697842 7.81476289 C130.20931144 7.81240408 128.38164081 7.80356481 126.55403775 7.78809816 C124.00763172 7.76853609 121.46247802 7.77423326 118.91605252 7.78630906 C118.16382413 7.77507005 117.41159573 7.76383104 116.63657254 7.75225145 C111.85957092 7.80991661 109.8624571 8.50237999 106.94144315 12.27214891 Z " fill="#FBFBFB" transform="translate(17.058556854724884,14.7278510928154)"/>
<path d="M0 0 C0.93569824 0.13422363 1.87139648 0.26844727 2.83544922 0.40673828 C15.06459065 2.22032257 26.38204229 4.7418345 38 9 C39.77117187 9.53367187 39.77117187 9.53367187 41.578125 10.078125 C67.03079285 17.76807997 89.95112064 33.80521442 109 52 C109.86625 52.81339844 110.7325 53.62679687 111.625 54.46484375 C121.2993877 63.79155815 129.14228663 74.46043418 136 86 C136.35980957 86.60215332 136.71961914 87.20430664 137.09033203 87.82470703 C141.76915195 95.70782158 145.85631311 103.45883225 148.94921875 112.12109375 C149.88089765 114.67368613 150.94153452 117.0577173 152.125 119.5 C154.26401941 124.15754226 155.26169713 128.98050134 156.2890625 133.984375 C156.89514796 136.94476104 156.89514796 136.94476104 158.01953125 139.375 C159.34527529 142.92440236 159.67550411 146.50791801 160.0625 150.25 C160.16765653 155.01026463 160.16765653 155.01026463 162 159 C162.86093994 164.54371623 163.18154797 169.978564 163.23828125 175.58203125 C163.24802979 176.38586243 163.25777832 177.1896936 163.26782227 178.0178833 C163.50222853 202.39554899 162.82797582 225.95748685 154 249 C153.48277242 250.72409193 152.98119935 252.45300741 152.5 254.1875 C140.30202955 294.98071265 108.9407951 331.41157652 72.07080078 352.08154297 C67.45693599 354.55147461 62.7430217 356.79120756 58 359 C57.2790918 359.34305176 56.55818359 359.68610352 55.81542969 360.03955078 C40.69423161 367.21599323 25.65005399 371.84130075 9.16252136 374.6224823 C7.10541194 374.98159793 5.05788735 375.37410221 3.0090332 375.77734375 C-7.77468268 377.83250572 -18.23650864 378.46937807 -29.20361328 378.39111328 C-31.86673493 378.37504985 -34.52833037 378.39106084 -37.19140625 378.41015625 C-53.70230517 378.43151527 -69.66502126 376.16685995 -85.6875 372.1875 C-87.26845459 371.79848511 -87.26845459 371.79848511 -88.88134766 371.40161133 C-111.47488035 365.69894163 -131.88855461 356.34364404 -151 343 C-152.07894531 342.24847656 -153.15789062 341.49695313 -154.26953125 340.72265625 C-164.90211353 333.01647277 -174.6450817 324.13578524 -183 314 C-183.74378906 313.15566406 -184.48757813 312.31132812 -185.25390625 311.44140625 C-196.39310079 298.59385324 -204.77674233 284.34113899 -212 269 C-212.45890625 268.09507812 -212.9178125 267.19015625 -213.390625 266.2578125 C-219.46986234 253.90695688 -222.63821811 240.08034529 -225.8125 226.75 C-226.01939453 225.91299561 -226.22628906 225.07599121 -226.43945312 224.21362305 C-228.26515403 216.21388731 -228.6790662 208.16982977 -229 200 C-229.03989548 198.99332275 -229.03989548 198.99332275 -229.08059692 197.96630859 C-229.25617255 193.18612992 -229.34547387 188.4082326 -229.375 183.625 C-229.37956207 182.89786804 -229.38412415 182.17073608 -229.38882446 181.42156982 C-229.42040154 167.19948685 -227.42367943 153.81379197 -224 140 C-223.74541016 138.93934326 -223.49082031 137.87868652 -223.22851562 136.78588867 C-221.86462106 131.17862413 -220.33288541 125.91094619 -218.078125 120.59375 C-217.33264936 118.80028687 -216.63761648 116.98532613 -215.984375 115.15625 C-200.12842878 70.93825914 -165.32644731 36.27550909 -123.4375 16.25 C-103.12693457 6.77308009 -82.21149083 1.49380834 -60 -1 C-58.72274048 -1.14465698 -58.72274048 -1.14465698 -57.41967773 -1.29223633 C-38.45280575 -3.23724566 -18.86583923 -2.72437492 0 0 Z M-105 31 C-105.94101562 31.70898438 -106.88203125 32.41796875 -107.8515625 33.1484375 C-108.56054688 33.75945313 -109.26953125 34.37046875 -110 35 C-110 35.66 -110 36.32 -110 37 C-110.99 37.33 -111.98 37.66 -113 38 C-115.5810972 40.43732255 -117.7555363 43.25442714 -120 46 C-120.77988281 46.94359375 -121.55976562 47.8871875 -122.36328125 48.859375 C-128.96201525 57.02318504 -134.19963969 65.67844618 -139 75 C-139.35336426 75.68610352 -139.70672852 76.37220703 -140.07080078 77.07910156 C-149.13957497 94.94881351 -154.31646 113.35239836 -158 133 C-158.29849854 134.49418457 -158.29849854 134.49418457 -158.60302734 136.01855469 C-162.03129689 153.65687516 -162.37173241 171.08317008 -162.375 189 C-162.37690338 190.13891693 -162.37880676 191.27783386 -162.38076782 192.45126343 C-162.37855393 204.15296477 -162.28773904 215.49317808 -160 227 C-159.7760236 228.51411815 -159.56168617 230.02971009 -159.359375 231.546875 C-155.95863114 255.42491505 -150.28500965 278.83438882 -138.94482422 300.21191406 C-138.11329098 301.7855961 -137.30658588 303.37234438 -136.50390625 304.9609375 C-130.35737683 316.83610199 -122.21892346 327.35819015 -113 337 C-112.39027344 337.67289062 -111.78054688 338.34578125 -111.15234375 339.0390625 C-94.88894792 356.37287292 -73.13219174 365.6103323 -50 369 C-48.90300781 369.185625 -47.80601562 369.37125 -46.67578125 369.5625 C-32.40765164 371.26072584 -17.91087644 370.53510721 -4 367 C-2.38158203 366.59974609 -2.38158203 366.59974609 -0.73046875 366.19140625 C14.43554383 361.98381953 27.67190871 354.64099081 40 345 C41.07701172 344.1646875 41.07701172 344.1646875 42.17578125 343.3125 C46.64157399 339.66857156 50.32403513 335.42227307 54 331 C54.94166016 329.90751953 54.94166016 329.90751953 55.90234375 328.79296875 C65.44131354 317.40287215 72.12844599 304.40700329 78.14941406 290.90283203 C78.88365768 289.26026751 79.6390905 287.62720504 80.3984375 285.99609375 C86.82719679 271.60304348 90.34184174 256.17021335 92.45703125 240.61328125 C93 237 93 237 94 235 C96.35138021 221.70641307 96.30914387 208.31319509 96.26074219 194.85473633 C96.25007103 191.33592283 96.26066777 187.81762571 96.2734375 184.29882812 C96.28591172 166.05832 95.77160041 147.7397158 91.75 129.875 C91.53529053 128.88838379 91.32058105 127.90176758 91.09936523 126.88525391 C87.77995457 112.06862257 83.5175359 97.73840301 77 84 C76.69304199 83.35047363 76.38608398 82.70094727 76.06982422 82.03173828 C62.04731724 52.56840399 40.09122426 24.46413675 8.4765625 12.6875 C5.33349713 11.70933778 2.18536023 10.82828177 -1 10 C-2.19625 9.62875 -3.3925 9.2575 -4.625 8.875 C-14.29355014 6.36833885 -23.58191675 5.61104735 -33.5625 5.625 C-34.22130157 5.62554382 -34.88010315 5.62608765 -35.55886841 5.62664795 C-62.03427099 5.7268622 -84.21622151 14.62309717 -105 31 Z " fill="#FBFBFB" transform="translate(814,10)"/>
<path d="M0 0 C1.30123306 -0.00426498 2.60246613 -0.00852997 3.94313049 -0.01292419 C5.39874271 -0.01257463 6.85435489 -0.01211307 8.30996704 -0.0115509 C9.83232201 -0.01454078 11.35467622 -0.0179429 12.87702942 -0.02172852 C17.02373764 -0.03059093 21.17042524 -0.03290759 25.31714201 -0.0335443 C28.77400324 -0.03449168 32.23085962 -0.03816805 35.68771899 -0.0417164 C43.84158931 -0.04986973 51.99544858 -0.05229986 60.14932251 -0.05158997 C68.5704624 -0.05098916 76.99153823 -0.06153953 85.41266191 -0.07733363 C92.63305444 -0.09039494 99.85342599 -0.09577445 107.07383025 -0.09513456 C111.39042319 -0.09487912 115.70695927 -0.0977551 120.0235405 -0.10831261 C124.08315623 -0.11796977 128.14266046 -0.11808922 132.20228004 -0.11079597 C133.69425048 -0.10974711 135.18622778 -0.11213084 136.67818642 -0.11815643 C138.71114356 -0.12583651 140.74413843 -0.1200503 142.77709961 -0.11352539 C144.48553826 -0.11434254 144.48553826 -0.11434254 146.22849083 -0.1151762 C149.01553345 0.13371277 149.01553345 0.13371277 152.01553345 2.13371277 C151.14053345 6.00871277 151.14053345 6.00871277 150.01553345 7.13371277 C147.66276787 7.26913059 145.33523802 7.3442632 142.9803772 7.37980652 C141.51617938 7.41278371 140.05198682 7.44599462 138.58779907 7.47941589 C136.2796544 7.52655079 133.97152472 7.57089535 131.66323853 7.61051941 C129.43537365 7.65065895 127.20797645 7.70213814 124.9803772 7.75480652 C124.30296982 7.76322067 123.62556244 7.77163483 122.92762756 7.78030396 C117.58733969 7.91560528 111.13093683 8.15478703 107.07803345 11.94621277 C105.05302903 16.11533952 104.88957087 20.2777859 104.88131237 24.8546896 C104.8746256 26.5779028 104.8746256 26.5779028 104.86780375 28.33592838 C104.86798811 29.5935025 104.86817248 30.85107661 104.86836243 32.14675903 C104.86506149 33.49973374 104.86133544 34.85270747 104.85722095 36.20567995 C104.8472197 39.92251724 104.84348721 43.63933839 104.84083164 47.35618722 C104.83692324 51.36512013 104.82734557 55.37404032 104.81861877 59.38296509 C104.79887385 69.06137361 104.78879259 78.73978316 104.77989098 88.41820678 C104.77550657 92.97552724 104.77014031 97.53284655 104.76490211 102.09016609 C104.74789503 117.23716332 104.73339911 132.38415982 104.72615337 147.53116512 C104.72424349 151.46012307 104.72232315 155.38908101 104.72036743 159.31803894 C104.71964182 160.78281935 104.71964182 160.78281935 104.71890155 162.27719129 C104.71059454 178.10937942 104.68524398 193.94149217 104.65278675 209.77364736 C104.61973998 226.02567449 104.60170694 242.27766326 104.59850913 258.52972418 C104.59634229 267.65582907 104.58756765 276.78182387 104.56204796 285.90789604 C104.54037384 293.67662138 104.53227444 301.44520987 104.54201474 309.21396201 C104.54656846 313.17829371 104.54461122 317.14234286 104.5252533 321.10663605 C104.50768553 324.73559158 104.50856673 328.36405711 104.52415059 331.99301738 C104.52766681 333.92795147 104.51145304 335.86289033 104.49454612 337.79775375 C104.54212433 344.18197746 104.60580012 348.3347408 109.01553345 353.13371277 C113.17578341 356.59814305 117.35975716 356.58858916 122.56240845 356.61027527 C123.3742157 356.6258548 124.18602295 356.64143433 125.02243042 356.65748596 C127.60345577 356.70485021 130.18421189 356.73273115 132.76553345 356.75871277 C135.36094956 356.79518007 137.95621216 356.83572593 140.55148315 356.88136292 C142.16398111 356.9086365 143.77659226 356.92996734 145.38925171 356.94490051 C150.90484069 357.02302001 150.90484069 357.02302001 152.01553345 358.13371277 C152.05617177 359.79988392 152.05825445 361.46759372 152.01553345 363.13371277 C149.23186664 364.52554617 146.96846158 364.25646793 143.85266113 364.25396729 C141.87962509 364.25602928 141.87962509 364.25602928 139.86672974 364.25813293 C138.40054299 364.25459353 136.93435647 364.25095872 135.46817017 364.24723816 C133.93094891 364.24695622 132.39372752 364.24711415 130.85650635 364.24768066 C126.67492824 364.24796837 122.49337863 364.24207591 118.31180716 364.23510671 C113.9449131 364.22886877 109.57801843 364.22826902 105.21112061 364.2270813 C96.93801093 364.22396928 88.66491441 364.21575764 80.39181054 364.20573181 C70.97477463 364.19456665 61.55773811 364.1890592 52.14069724 364.18403637 C32.76563517 364.17357492 13.39058537 364.15597798 -5.98446655 364.13371277 C-6.02701012 362.13416531 -6.02527438 360.13329641 -5.98446655 358.13371277 C-3.96125206 356.11049827 0.21482129 356.99672551 2.9960022 356.99308777 C4.65161481 356.9747506 6.30721413 356.95517945 7.96279907 356.93449402 C10.57866638 356.90558399 13.19368577 356.88371452 15.8097229 356.88322449 C18.33091845 356.87987787 20.85014923 356.84524751 23.3710022 356.80558777 C24.5338398 356.81619232 24.5338398 356.81619232 25.72016907 356.82701111 C29.85211454 356.73499 31.76577651 356.29048148 35.36831665 354.02922058 C41.78441726 347.01133317 41.44566777 340.10957582 41.39648438 331.0007782 C41.39994366 329.65916167 41.40471005 328.31754799 41.41066611 326.97594023 C41.42316867 323.2996807 41.4170092 319.62365536 41.40770745 315.94739509 C41.40091423 311.97868767 41.41139955 308.01002025 41.41964722 304.0413208 C41.43298383 296.27074544 41.43010714 288.50025703 41.42140929 280.72967827 C41.41463288 274.41410809 41.41371585 268.09856227 41.41698074 261.7829895 C41.41744044 260.88396659 41.41790014 259.98494368 41.41837377 259.05867764 C41.41933295 257.23230349 41.42030559 255.40592935 41.42129155 253.57955521 C41.42984523 236.45549639 41.42001165 219.33148575 41.40389045 202.20743483 C41.39048728 187.51568173 41.39281538 172.82399974 41.40664673 158.13224792 C41.42270292 141.06927014 41.42902126 124.00633459 41.41980994 106.94335032 C41.41885429 105.12371223 41.41791118 103.30407413 41.41698074 101.48443604 C41.41651792 100.5891501 41.41605509 99.69386416 41.41557824 98.77144834 C41.41298847 92.46380233 41.41735907 86.15618312 41.4244194 79.84854126 C41.43283503 72.16114266 41.43055295 64.47383596 41.41457717 56.78644788 C41.40669529 52.86456455 41.4036014 48.94283441 41.41352463 45.02095222 C41.42247382 41.42970395 41.41753519 37.83875066 41.40159197 34.24752909 C41.39666145 32.33532225 41.40643873 30.42309488 41.41676366 28.51090956 C41.36544685 21.02173368 41.03330719 15.51748575 35.87368774 9.73210144 C31.94694658 7.53611832 28.71611669 7.54891205 24.2850647 7.55949402 C23.45343307 7.54532944 22.62180145 7.53116486 21.76496887 7.51657104 C19.11919081 7.47477132 16.47409482 7.45944668 13.82803345 7.44621277 C11.17157688 7.41715815 8.5152927 7.38264332 5.85896301 7.34371948 C4.20858057 7.32122799 2.55809114 7.30541105 0.90757751 7.296875 C-4.76534413 7.24327398 -4.76534413 7.24327398 -6.98446655 6.13371277 C-7.02718755 4.46759372 -7.02510487 2.79988392 -6.98446655 1.13371277 C-5.18050934 -0.67024445 -2.43074759 0.00357893 0 0 Z " fill="#FCFCFC" transform="translate(419.9844665527344,15.866287231445313)"/>
<path d="M0 0 C0.84140533 -0.0033284 1.68281067 -0.0066568 2.54971313 -0.01008606 C4.32984881 -0.01513468 6.10999389 -0.01749502 7.89013672 -0.01733398 C10.55843653 -0.0194963 13.22630578 -0.03760659 15.89453125 -0.05664062 C29.2650554 -0.10197735 42.66980107 0.2254084 55.4765625 4.48046875 C56.13366211 4.69848145 56.79076172 4.91649414 57.46777344 5.14111328 C80.26792589 12.85015851 99.90892329 25.29739568 111.2265625 47.16796875 C113.1434456 51.42951395 114.75235398 55.7348878 116.2265625 60.16796875 C116.54882812 61.11671875 116.87109375 62.06546875 117.203125 63.04296875 C123.49585035 85.15572325 119.86292377 112.66964702 108.84765625 132.671875 C95.82261625 154.94707396 74.7524847 168.35757105 50.01025391 175.03613281 C33.20014601 178.86840753 16.82147922 179.46362975 -0.33203125 179.3046875 C-2.42280568 179.2936839 -4.51358579 179.28370849 -6.60437012 179.27478027 C-11.66086945 179.25099497 -16.7170884 179.21341706 -21.7734375 179.16796875 C-21.84349448 157.08909819 -21.89640945 135.01024594 -21.92887402 112.93128681 C-21.94434801 102.67982075 -21.96544773 92.42842371 -21.99975586 82.17700195 C-22.02964189 73.24267204 -22.04900863 64.30839211 -22.05570298 55.3740136 C-22.05961659 50.6425881 -22.0688252 45.91130562 -22.09062767 41.17992592 C-22.11098021 36.72714815 -22.11727379 32.27457241 -22.11276054 27.82175255 C-22.1135863 26.18709592 -22.11955932 24.55243258 -22.13105392 22.91781616 C-22.14597907 20.68599528 -22.14239147 18.45493727 -22.13420105 16.22309875 C-22.13696643 14.97406926 -22.13973181 13.72503977 -22.14258099 12.4381609 C-21.64731505 8.05066709 -20.10591875 5.45450238 -16.9609375 2.41796875 C-11.88424417 -0.48299887 -5.69248739 0.00798036 0 0 Z " fill="#010101" transform="translate(1122.7734375,22.83203125)"/>
<path d="M0 0 C9.9 0 19.8 0 30 0 C30 0.33 30 0.66 30 1 C16.635 1.495 16.635 1.495 3 2 C2.67 52.16 2.34 102.32 2 154 C0 152 0 152 -0.24609566 149.38006401 C-0.24425207 148.26100733 -0.24240849 147.14195065 -0.24050903 145.98898315 C-0.24325836 144.70728241 -0.24600769 143.42558167 -0.24884033 142.1050415 C-0.24176155 140.67663482 -0.23449193 139.24822906 -0.22705078 137.81982422 C-0.22648689 136.32201139 -0.22680279 134.82419801 -0.22793579 133.3263855 C-0.22851118 129.25220559 -0.21672682 125.17814271 -0.20278788 121.10399008 C-0.19031149 116.84920941 -0.18911246 112.59442626 -0.18673706 108.33963013 C-0.18051318 100.27899661 -0.16409011 92.21841715 -0.14403808 84.15780747 C-0.12170729 74.98261072 -0.11069276 65.80741143 -0.10064721 56.63219428 C-0.07972464 37.75475929 -0.0430371 18.87739842 0 0 Z " fill="#494949" transform="translate(1101,209)"/>
<path d="M0 0 C11.55 0 23.1 0 35 0 C35 0.33 35 0.66 35 1 C34.01604248 1.02505615 33.03208496 1.0501123 32.01831055 1.07592773 C28.36729943 1.1701082 24.71647384 1.2703029 21.06567383 1.37231445 C19.48563985 1.41562305 17.90556031 1.45730106 16.32543945 1.49731445 C14.05405952 1.55511583 11.78290811 1.6187816 9.51171875 1.68359375 C8.80536789 1.70030624 8.09901703 1.71701874 7.3712616 1.73423767 C4.3335176 1.8259747 1.90376942 2.03207686 -1 3 C-0.67 2.01 -0.34 1.02 0 0 Z " fill="#EBEBEB" transform="translate(11,373)"/>
<path d="M0 0 C0 3 0 3 -2.3125 5.625 C-5 8 -5 8 -8 9 C-9.20882096 11.00016466 -9.20882096 11.00016466 -10 13 C-10.66 12.01 -11.32 11.02 -12 10 C-11.38511719 9.52949219 -10.77023437 9.05898437 -10.13671875 8.57421875 C-9.32847656 7.95160156 -8.52023437 7.32898438 -7.6875 6.6875 C-6.88699219 6.07261719 -6.08648438 5.45773438 -5.26171875 4.82421875 C-3.37298626 3.30083693 -1.66922364 1.75565593 0 0 Z " fill="#222222" transform="translate(1279,171)"/>
</svg>
