<svg width="28" height="29" viewBox="0 0 28 29" fill="none" xmlns="http://www.w3.org/2000/svg">
<circle cx="14" cy="14.5837" r="14" fill="white"/>
<circle cx="14" cy="14.5837" r="13.5" stroke="black" stroke-opacity="0.2"/>
<path d="M12.7087 20.8875V15.334H10.8398V13.1697H12.7087V11.5736C12.7087 9.72126 13.84 8.71265 15.4924 8.71265C16.2839 8.71265 16.9642 8.77158 17.1624 8.79792V10.7337L16.0164 10.7342C15.1178 10.7342 14.9438 11.1612 14.9438 11.7879V13.1697H17.087L16.8079 15.334H14.9438V20.8875H12.7087Z" fill="black"/>
<path d="M15.4922 9.21265C15.947 9.21265 16.3622 9.23345 16.6621 9.25464V10.2341H16.0166C15.5007 10.2341 15.0536 10.3561 14.7607 10.7039C14.4841 11.0324 14.4434 11.4531 14.4434 11.7878V13.6697H16.5186L16.3682 14.8337H14.4434V20.3875H13.209V14.8337H11.3398V13.6697H13.209V11.574C13.209 10.7515 13.4574 10.1749 13.832 9.80444C14.2083 9.43252 14.7676 9.21269 15.4922 9.21265Z" stroke="black" stroke-opacity="0.2"/>
</svg>
