<?xml version="1.0" encoding="UTF-8"?>
<svg version="1.1" xmlns="http://www.w3.org/2000/svg" width="899" height="170">
<path d="M0 0 C296.67 0 593.34 0 899 0 C899 56.1 899 112.2 899 170 C602.33 170 305.66 170 0 170 C0 113.9 0 57.8 0 0 Z " fill="#030303" transform="translate(0,0)"/>
<path d="M0 0 C13.53 0 27.06 0 41 0 C44.20308687 14.41389092 47.18597435 28.84594096 49.94384766 43.34985352 C51.04402409 49.1211432 52.15755006 54.87960999 53.46166992 60.60839844 C54.72145752 66.20516911 55.88458489 71.8230579 57.0625 77.4375 C57.33126953 78.69626953 57.60003906 79.95503906 57.87695312 81.25195312 C59.32191676 88.15967205 60.5144725 94.95523211 61 102 C61.66 102 62.32 102 63 102 C62.95230469 101.0821875 62.90460938 100.164375 62.85546875 99.21875 C62.85951347 93.84735778 64.16055353 88.72139372 65.3125 83.5 C65.77765546 81.32819174 66.24250055 79.15631698 66.70703125 76.984375 C66.93213379 75.94345703 67.15723633 74.90253906 67.38916016 73.83007812 C69.67458403 63.24149557 71.61433759 52.6034948 73.5 41.9375 C75.1560727 32.57351827 76.9169179 23.2791839 79 14 C79.99 9.38 80.98 4.76 82 0 C95.53 0 109.06 0 123 0 C123 48.51 123 97.02 123 147 C113.76 147 104.52 147 95 147 C94.67 114.33 94.34 81.66 94 48 C88.64594897 75.41865439 88.64594897 75.41865439 83.89453125 102.87890625 C83.00388915 108.18249827 81.80969755 113.38058413 80.50805664 118.59619141 C78.20197136 127.96916472 76.67328546 137.498129 75 147 C65.76 147 56.52 147 47 147 C45.75314718 142.63601513 44.62739248 138.5111066 43.73828125 134.09765625 C43.39603516 132.41651733 43.39603516 132.41651733 43.046875 130.70141602 C42.80453125 129.50057373 42.5621875 128.29973145 42.3125 127.0625 C40.67583867 119.04153632 39.02349883 111.02579303 37.26171875 103.03125 C37.11487137 102.3646788 36.96802399 101.6981076 36.81672668 101.01133728 C36.11996226 97.85485608 35.41868793 94.69948077 34.7121582 91.54516602 C31.57678029 77.40319641 28.84332932 63.21664658 26 49 C25.67 81.01 25.34 113.02 25 146 C16.75 146 8.5 146 0 146 C0 97.82 0 49.64 0 0 Z " fill="#FCFCFC" transform="translate(216,11)"/>
<path d="M0 0 C68.06081081 0 68.06081081 0 83.16015625 12.484375 C88.91709964 20.35586448 88.49033605 30.15282274 88.4375 39.5 C88.45748047 40.75425781 88.47746094 42.00851563 88.49804688 43.30078125 C88.49331565 52.33742766 87.22240331 60.02611772 81.6875 67.375 C78.53889677 70.4503799 74.63683124 74 70 74 C70 74.66 70 75.32 70 76 C71.0725 76.226875 72.145 76.45375 73.25 76.6875 C77.48225183 78.16878814 78.50811788 79.39106727 81 83 C81.65178223 83.60118652 82.30356445 84.20237305 82.97509766 84.82177734 C91.22017417 93.6911495 89.60055284 109.15578882 89.625 120.375 C89.64143555 123.06898014 89.66359462 125.76262218 89.69662476 128.45645142 C89.71600421 130.11812614 89.72561737 131.77995551 89.72354126 133.44174194 C89.73050018 134.20008331 89.73745911 134.95842468 89.74462891 135.73974609 C89.74588776 136.39558685 89.74714661 137.05142761 89.7484436 137.72714233 C90.09834919 140.88860279 91.12617664 143.94161825 92 147 C81.44 147 70.88 147 60 147 C57.7505762 138.00230479 57.7505762 138.00230479 57.71289062 134.4074707 C57.69947632 133.60336258 57.68606201 132.79925446 57.67224121 131.97077942 C57.66696411 131.13093002 57.66168701 130.29108063 57.65625 129.42578125 C57.6416272 128.53892136 57.62700439 127.65206146 57.61193848 126.73832703 C57.55015029 122.97730277 57.51003599 119.21612534 57.46826172 115.45483398 C57.43447436 112.69497787 57.38940016 109.93546254 57.34375 107.17578125 C57.3384729 106.32985916 57.3331958 105.48393707 57.32775879 104.61238098 C57.25547494 100.33035 57.07476683 96.86142314 55 93 C47.61389416 86.12328077 39.03048523 87.59002854 29 87 C29 106.8 29 126.6 29 147 C19.43 147 9.86 147 0 147 C0 98.49 0 49.98 0 0 Z " fill="#FCFCFC" transform="translate(684,11)"/>
<path d="M0 0 C14.52 0 29.04 0 44 0 C45.41842596 4.96449086 46.54249579 9.57859207 47.4375 14.625 C48.34090334 19.61676436 49.32430869 24.56332759 50.5 29.5 C51.74162098 34.74168856 52.77173447 39.99922395 53.73657227 45.29833984 C54.86554513 51.4299169 56.1465762 57.52572578 57.4375 63.625 C59.30770577 72.47553151 61.0292613 81.3400638 62.56811523 90.25439453 C63.58722953 96.06577923 64.85290151 101.79198574 66.20166016 107.53540039 C67.60563399 113.62830336 68.86098035 119.75180931 70.125 125.875 C70.38925781 127.14085937 70.65351562 128.40671875 70.92578125 129.7109375 C71.17972656 130.938125 71.43367187 132.1653125 71.6953125 133.4296875 C71.92234863 134.52522949 72.14938477 135.62077148 72.38330078 136.74951172 C73.02807054 140.14795375 73.51081422 143.57569955 74 147 C64.1 147 54.2 147 44 147 C42.53650467 141.87776635 41.3322289 137.01376927 40.375 131.8125 C40.17390625 130.76545898 40.17390625 130.76545898 39.96875 129.69726562 C39.34997742 126.37925549 39 123.39045592 39 120 C26.79 120 14.58 120 2 120 C1.67 123.96 1.34 127.92 1 132 C0.37908646 134.67768966 -0.28056488 137.34708299 -1 140 C-1.33 142.31 -1.66 144.62 -2 147 C-10.91 147 -19.82 147 -29 147 C-28.54625 143.65875 -28.0925 140.3175 -27.625 136.875 C-27.48658691 135.83327637 -27.34817383 134.79155273 -27.20556641 133.71826172 C-27.08874512 132.88053223 -26.97192383 132.04280273 -26.8515625 131.1796875 C-26.73635254 130.33132324 -26.62114258 129.48295898 -26.50244141 128.60888672 C-26 126 -26 126 -25.03515625 123.13134766 C-23.89320478 119.67694445 -23.22608468 116.29990312 -22.5859375 112.71875 C-22.32697701 111.29288156 -22.06751946 109.86710333 -21.80761719 108.44140625 C-21.67512573 107.70873535 -21.54263428 106.97606445 -21.40612793 106.22119141 C-20.74610729 102.61141216 -20.04950539 99.00885835 -19.3515625 95.40625 C-19.21223801 94.68574966 -19.07291351 93.96524933 -18.92936707 93.22291565 C-18.49548494 90.98176672 -18.06047009 88.74084089 -17.625 86.5 C-17.47282013 85.71664276 -17.32064026 84.93328552 -17.16384888 84.12619019 C-14.75804258 71.75694365 -12.25475148 59.41178119 -9.64892578 47.08300781 C-8.37644423 41.03752361 -7.12692964 34.98726701 -5.875 28.9375 C-5.51233032 27.1896521 -5.51233032 27.1896521 -5.14233398 25.40649414 C-3.39017516 16.9446295 -1.69481323 8.47406614 0 0 Z " fill="#FAFAFA" transform="translate(596,11)"/>
<path d="M0 0 C9.9 0 19.8 0 30 0 C30 20.79 30 41.58 30 63 C41.22 63 52.44 63 64 63 C64 42.21 64 21.42 64 0 C73.57 0 83.14 0 93 0 C93 48.51 93 97.02 93 147 C83.1 147 73.2 147 63 147 C63 126.21 63 105.42 63 84 C52.11 84 41.22 84 30 84 C30 104.79 30 125.58 30 147 C20.1 147 10.2 147 0 147 C0 98.49 0 49.98 0 0 Z " fill="#F9F9F9" transform="translate(460,11)"/>
<path d="M0 0 C9.9 0 19.8 0 30 0 C30.33 19.8 30.66 39.6 31 60 C37.51214716 49.43196003 37.51214716 49.43196003 43.9375 38.8125 C44.32228516 38.17248047 44.70707031 37.53246094 45.10351562 36.87304688 C47.14001003 33.48562425 47.14001003 33.48562425 49 30 C49.66 30 50.32 30 51 30 C51.24234375 29.16082031 51.4846875 28.32164063 51.734375 27.45703125 C53.17153174 23.53146422 55.0629795 20.23135095 57.25 16.6875 C57.61996094 16.07455078 57.98992188 15.46160156 58.37109375 14.83007812 C59.14514069 13.55805218 59.93932584 12.29809887 60.75146484 11.05004883 C62.07008739 8.97964187 62.07008739 8.97964187 63.11181641 6.53393555 C64.50709951 3.77837352 65.63102837 1.99881981 68 0 C72.97380835 -1.10930215 77.8233839 -0.85197872 82.875 -0.5625 C84.24466027 -0.51730899 85.61446358 -0.47625232 86.984375 -0.43945312 C90.32656772 -0.33353857 93.66144958 -0.18575728 97 0 C96.39816251 2.02045442 95.72693904 4.02111039 95 6 C94.34 6.33 93.68 6.66 93 7 C92.32445931 8.66308959 91.65924725 10.33038469 91 12 C89.96145185 13.59261894 88.87492062 15.15466897 87.75 16.6875 C84.77995817 20.83574025 82.10117801 25.06549738 79.515625 29.4609375 C77.98046866 32.03272003 76.37609904 34.54736551 74.75 37.0625 C71.15359145 42.66583296 67.7954965 48.39903955 64.46386719 54.16235352 C61.2380726 59.71141199 61.2380726 59.71141199 59.140625 62.25390625 C57.77845405 63.91249899 57.77845405 63.91249899 58.28710938 65.81074524 C59.08647812 68.26557038 60.10912318 70.46513978 61.265625 72.77416992 C61.73701904 73.72003464 62.20841309 74.66589935 62.6940918 75.64042664 C63.2075415 76.66014053 63.72099121 77.67985443 64.25 78.73046875 C64.78214111 79.79429276 65.31428223 80.85811676 65.86254883 81.95417786 C66.99387611 84.21380842 68.12714988 86.47246533 69.26220703 88.73022461 C70.9696701 92.12715979 72.67092274 95.52714474 74.37109375 98.92773438 C79.55328083 109.27454325 84.76352387 119.60044255 90.2364502 129.79716492 C97 142.40236507 97 142.40236507 97 147 C87.1 147 77.2 147 67 147 C64 141 64 141 64 138 C63.34 138 62.68 138 62 138 C61.3291288 136.3767313 60.66342971 134.75132422 60 133.125 C59.62875 132.22007812 59.2575 131.31515625 58.875 130.3828125 C58 128 58 128 58 126 C57.34 126 56.68 126 56 126 C55.68216553 125.15320679 55.68216553 125.15320679 55.35791016 124.28930664 C52.457278 116.78562786 48.97890721 109.62520333 45.375 102.4375 C44.78363977 101.23903806 44.19249265 100.04047094 43.6015625 98.84179688 C43.03953125 97.71708984 42.4775 96.59238281 41.8984375 95.43359375 C41.13539307 93.90303345 41.13539307 93.90303345 40.35693359 92.34155273 C39.21657451 89.87926896 39.21657451 89.87926896 37 89 C36.7525 89.70125 36.505 90.4025 36.25 91.125 C35 94 35 94 32.95996094 96.50048828 C29.98943047 100.91135273 30.39697152 105.71667702 30.390625 110.8671875 C30.37408875 111.90191193 30.35755249 112.93663635 30.34051514 114.00271606 C30.2920983 117.29353815 30.27067758 120.58389829 30.25 123.875 C30.22183514 126.11200233 30.19190699 128.3489832 30.16015625 130.5859375 C30.08303478 136.05750289 30.04245448 141.52761738 30 147 C20.1 147 10.2 147 0 147 C0 98.49 0 49.98 0 0 Z " fill="#F8F8F8" transform="translate(791,11)"/>
<path d="M0 0 C1.11568359 0.27457031 1.11568359 0.27457031 2.25390625 0.5546875 C10.63821404 2.91687509 17.96693135 7.87070614 23 15 C28.31250227 25.88735033 27.30472419 37.1919378 27 49 C17.76 49 8.52 49 -1 49 C-1.3125 38.8125 -1.3125 38.8125 -1.38793945 35.62817383 C-1.63087243 28.8112639 -1.63087243 28.8112639 -5 23 C-10.69628519 19.55849436 -16.43751084 19.10062272 -23 20 C-27.12163602 22.02466331 -29.44252701 23.69277441 -31 28 C-31.20644862 30.89969136 -31.30403457 33.70441829 -31.30639648 36.60473633 C-31.31472 37.47189774 -31.32304352 38.33905914 -31.33161926 39.23249817 C-31.35571303 42.0990549 -31.36449093 44.965384 -31.37109375 47.83203125 C-31.38006105 49.82736784 -31.38918291 51.82270374 -31.39845276 53.81803894 C-31.41494396 58.0018375 -31.42264303 62.18555603 -31.42553711 66.36938477 C-31.43091887 71.72281281 -31.46859004 77.07548557 -31.51428127 82.42870045 C-31.54406806 86.55090562 -31.55126103 90.67292934 -31.55226326 94.79523277 C-31.55646287 96.76836288 -31.56888672 98.74149365 -31.58978081 100.71451759 C-31.61672672 103.47926489 -31.61186025 106.24226721 -31.59936523 109.00708008 C-31.61419952 109.81719543 -31.62903381 110.62731079 -31.64431763 111.4619751 C-31.56735055 117.46187431 -29.93607284 120.46232692 -26 125 C-23.77810134 126.11338288 -23.77810134 126.11338288 -21 126 C-20.23171875 126.03609375 -19.4634375 126.0721875 -18.671875 126.109375 C-13.78372766 126.25572672 -9.46531364 126.23265682 -5 124 C-3.6237206 122.08235826 -3.6237206 122.08235826 -3 120 C-2.67 119.34 -2.34 118.68 -2 118 C-1.84373424 115.52167341 -1.74186802 113.06688669 -1.68359375 110.5859375 C-1.66281265 109.85629791 -1.64203156 109.12665833 -1.62062073 108.37490845 C-1.55518083 106.04170237 -1.49626632 103.70838279 -1.4375 101.375 C-1.39430947 99.79425905 -1.35069501 98.21352961 -1.30664062 96.6328125 C-1.19950519 92.75532496 -1.09822218 88.87772315 -1 85 C-5.29 85 -9.58 85 -14 85 C-14 78.4 -14 71.8 -14 65 C-0.47 65 13.06 65 27 65 C27.09247022 71.98920733 27.17191663 78.97624159 27.21972656 85.96557617 C27.23968345 88.3367436 27.26685877 90.70786284 27.30175781 93.07885742 C27.70295254 121.0621898 27.70295254 121.0621898 23 131 C22.01 131.33 21.02 131.66 20 132 C19.28597918 133.30858568 18.62231674 134.64539891 18 136 C10.63650468 144.26148256 -0.76165502 147.81607099 -11.578125 148.48046875 C-25.28934065 148.87198403 -37.24488217 147.51021417 -49 140 C-49 139.34 -49 138.68 -49 138 C-49.556875 137.814375 -50.11375 137.62875 -50.6875 137.4375 C-55.39336087 134.51223513 -58.39269157 129.2237524 -60 124 C-61.03399 118.99843344 -61.15416475 114.18966442 -61.16113281 109.1081543 C-61.16609772 108.23415985 -61.17106262 107.36016541 -61.17617798 106.45968628 C-61.19072931 103.58118896 -61.19758955 100.70274674 -61.203125 97.82421875 C-61.20888186 95.81411234 -61.21463952 93.80400594 -61.22039795 91.79389954 C-61.23088768 87.58338161 -61.23674373 83.37288266 -61.24023438 79.16235352 C-61.2457174 73.78248793 -61.26975006 68.40287562 -61.29820633 63.02308941 C-61.31688179 58.87166116 -61.3220409 54.72029337 -61.32357025 50.56882668 C-61.32658578 48.58620633 -61.33457694 46.60358676 -61.34775543 44.62100792 C-61.36492019 41.84048853 -61.36291045 39.060581 -61.35644531 36.2800293 C-61.3656601 35.47089584 -61.37487488 34.66176239 -61.3843689 33.82810974 C-61.32610441 25.77876014 -58.79736574 19.05225065 -55 12 C-54.34 12 -53.68 12 -53 12 C-52.61521484 11.10474609 -52.61521484 11.10474609 -52.22265625 10.19140625 C-48.96614338 4.35465314 -42.39042409 1.30657292 -36.19140625 -0.4765625 C-24.69914038 -3.2215957 -11.37948852 -3.15985797 0 0 Z " fill="#FBFBFB" transform="translate(68,11)"/>
<path d="M0 0 C6.39470587 5.33462094 10.87575462 10.33619175 12.19140625 18.828125 C12.31986461 23.49887106 12.23508545 28.15445081 12.19140625 32.828125 C3.28140625 32.828125 -5.62859375 32.828125 -14.80859375 32.828125 C-15.79859375 26.393125 -15.79859375 26.393125 -16.80859375 19.828125 C-20.12541411 14.75404528 -20.12541411 14.75404528 -23.80859375 13.828125 C-29.95706578 13.4071309 -36.1579777 13.18315579 -41.80859375 15.828125 C-44.73899613 20.79706817 -44.51188121 27.22475858 -43.80859375 32.828125 C-39.45703725 48.12801248 -21.22110618 58.30261218 -8.80859375 67.078125 C-4.74277226 69.99747938 -1.82881798 72.8640807 1.19140625 76.828125 C2.67640625 77.818125 2.67640625 77.818125 4.19140625 78.828125 C4.19140625 79.818125 4.19140625 80.808125 4.19140625 81.828125 C5.67640625 82.323125 5.67640625 82.323125 7.19140625 82.828125 C8.32421875 85.0078125 8.32421875 85.0078125 9.31640625 87.703125 C9.64898437 88.58742188 9.9815625 89.47171875 10.32421875 90.3828125 C13.69090611 99.87626425 14.17752521 111.73122808 9.83203125 121.01831055 C5.57788509 129.09617569 5.57788509 129.09617569 2.19140625 131.828125 C1.53140625 131.828125 0.87140625 131.828125 0.19140625 131.828125 C0.19140625 132.488125 0.19140625 133.148125 0.19140625 133.828125 C-12.92963373 142.57548499 -29.64334624 143.95135854 -44.95214844 141.48242188 C-51.35083293 140.07647689 -57.45375563 137.60085186 -62.80859375 133.828125 C-63.13859375 132.838125 -63.46859375 131.848125 -63.80859375 130.828125 C-64.79859375 130.498125 -65.78859375 130.168125 -66.80859375 129.828125 C-75.79761781 119.76229076 -75.80859375 109.06573782 -75.80859375 95.828125 C-66.23859375 95.828125 -56.66859375 95.828125 -46.80859375 95.828125 C-46.43359375 104.015625 -46.43359375 104.015625 -46.33056641 106.56713867 C-46.11624207 110.64657451 -45.86297609 114.19452357 -43.80859375 117.828125 C-37.55083262 120.56589549 -30.30046534 120.8258026 -23.74609375 118.953125 C-21.65329781 117.97497388 -21.65329781 117.97497388 -20.80859375 115.828125 C-20.14859375 115.828125 -19.48859375 115.828125 -18.80859375 115.828125 C-17.54277156 111.96088869 -17.69671725 108.09661238 -17.74609375 104.078125 C-17.75060547 103.38074219 -17.75511719 102.68335937 -17.75976562 101.96484375 C-17.77149355 100.25256697 -17.78942722 98.54033467 -17.80859375 96.828125 C-18.46859375 96.828125 -19.12859375 96.828125 -19.80859375 96.828125 C-20.11796875 96.003125 -20.42734375 95.178125 -20.74609375 94.328125 C-22.79955974 90.10040091 -26.37683265 87.4992394 -29.9453125 84.5625 C-30.86763672 83.70398438 -30.86763672 83.70398438 -31.80859375 82.828125 C-31.80859375 82.168125 -31.80859375 81.508125 -31.80859375 80.828125 C-32.38609375 80.539375 -32.96359375 80.250625 -33.55859375 79.953125 C-34.67234375 79.39625 -34.67234375 79.39625 -35.80859375 78.828125 C-36.46859375 78.539375 -37.12859375 78.250625 -37.80859375 77.953125 C-39.80859375 76.828125 -39.80859375 76.828125 -41.58203125 74.9453125 C-44.76508548 71.91861883 -48.43556767 70.32044886 -52.34765625 68.390625 C-55.02639751 66.6898369 -55.59483092 65.667872 -56.80859375 62.828125 C-57.67484375 62.168125 -58.54109375 61.508125 -59.43359375 60.828125 C-67.7721102 54.12862898 -72.42470007 44.24803036 -73.80859375 33.828125 C-74.66700407 24.41013749 -74.24965046 14.53972573 -68.5234375 6.69921875 C-61.58444971 -1.39713103 -61.58444971 -1.39713103 -56.80859375 -3.171875 C-55.81859375 -3.171875 -54.82859375 -3.171875 -53.80859375 -3.171875 C-53.80859375 -3.831875 -53.80859375 -4.491875 -53.80859375 -5.171875 C-37.26654731 -11.22384321 -14.25905011 -10.89455514 0 0 Z " fill="#F9F9F9" transform="translate(430.80859375,17.171875)"/>
<path d="M0 0 C10.23 0 20.46 0 31 0 C33.43266014 7.23040653 35.85664418 14.44694747 38.0625 21.75 C39.54563679 26.63422556 41.22268018 31.40791659 43 36.19140625 C44.46899484 40.31721597 45.71785395 44.50373092 46.984375 48.6953125 C48.56191169 53.82837419 50.27723014 58.91416345 52 64 C55.26264309 57.23303655 57.54273934 50.3146738 59.7265625 43.1484375 C61.44412083 37.51245564 63.33209245 31.93496932 65.2109375 26.35107422 C66.92031586 21.257846 68.61451678 16.15953566 70.3125 11.0625 C71.529375 7.411875 72.74625 3.76125 74 0 C83.57 0 93.14 0 103 0 C101.00642849 6.64523836 98.94991254 12.88833628 96.3125 19.25 C93.34608778 26.53131923 90.5409249 33.85337785 87.875 41.25 C87.54387207 42.16813477 87.21274414 43.08626953 86.87158203 44.03222656 C86.22314193 45.83191306 85.57502159 47.63171481 84.92724609 49.43164062 C83.53256931 53.2947264 82.1178416 57.14998962 80.6875 61 C80.23761719 62.216875 79.78773438 63.43375 79.32421875 64.6875 C78 68 78 68 76.4375 71.1015625 C75.07633872 73.84607792 74.1470511 76.43420088 73.3125 79.375 C73.06113281 80.24898438 72.80976563 81.12296875 72.55078125 82.0234375 C72.36902344 82.67570312 72.18726563 83.32796875 72 84 C71.34 84 70.68 84 70 84 C69.814375 85.8871875 69.814375 85.8871875 69.625 87.8125 C69.30131941 91.10325263 68.93395001 92.09907498 67 95 C66.6723603 97.40299777 66.6723603 97.40299777 66.68115234 100.11401367 C66.66128265 101.15486618 66.64141296 102.19571869 66.62094116 103.26811218 C66.60938995 104.39006485 66.59783875 105.51201752 66.5859375 106.66796875 C66.56657135 107.81791824 66.5472052 108.96786774 66.5272522 110.15266418 C66.46740239 113.83086699 66.42104894 117.509101 66.375 121.1875 C66.33682524 123.67905022 66.29777381 126.17058717 66.2578125 128.66210938 C66.1600441 134.77467113 66.08051668 140.88708903 66 147 C56.1 147 46.2 147 36 147 C35.96261719 143.35066406 35.92523438 139.70132813 35.88671875 135.94140625 C35.84043921 132.38674096 35.78922879 128.83217829 35.73754883 125.27758789 C35.70440088 122.81703994 35.67633778 120.3564178 35.65356445 117.89575195 C35.61983245 114.34815003 35.56750572 110.80122176 35.51171875 107.25390625 C35.50532883 106.1629213 35.4989389 105.07193634 35.49235535 103.94789124 C35.31572564 94.66407004 32.82450687 87.59962677 29.0625 79.1875 C26.71170933 73.79519252 24.72410849 68.39907813 22.9296875 62.80078125 C21.77098061 59.31005503 20.4038232 55.92782833 19.015625 52.5234375 C17.88621094 49.71727794 16.80641172 46.89695679 15.75 44.0625 C15.41484375 43.16660156 15.0796875 42.27070312 14.734375 41.34765625 C14 39 14 39 14 36 C13.34 36 12.68 36 12 36 C11.74605469 35.14277344 11.49210937 34.28554688 11.23046875 33.40234375 C9.43242452 27.42906574 7.50702696 21.71602147 5 16 C4.08830393 13.56697977 3.19124725 11.13229489 2.3125 8.6875 C1.65701172 6.86798828 1.65701172 6.86798828 0.98828125 5.01171875 C0 2 0 2 0 0 Z " fill="#F9F9F9" transform="translate(101,11)"/>
<path d="M0 0 C20.97821944 0 20.97821944 0 27.40429688 4.79345703 C29.53705887 7.74264659 29.51658755 9.68463238 29.53125 13.3046875 C29.53640625 14.52800781 29.5415625 15.75132813 29.546875 17.01171875 C29.53140625 18.28660156 29.5159375 19.56148437 29.5 20.875 C29.51546875 22.14214844 29.5309375 23.40929687 29.546875 24.71484375 C29.49814992 36.29923071 29.49814992 36.29923071 25 41 C16.80451397 47.10644057 11.40781832 45 0 45 C0 30.15 0 15.3 0 0 Z " fill="#040404" transform="translate(713,32)"/>
<path d="M0 0 C2.36819216 3.55228825 2.87659734 6.8189074 3.5859375 10.9375 C3.72781494 11.7258876 3.86969238 12.51427521 4.01586914 13.32655334 C4.47507635 15.88331001 4.92502588 18.44160383 5.375 21 C5.99616679 24.47855831 6.62237492 27.95619543 7.25 31.43359375 C7.40213959 32.279254 7.55427917 33.12491425 7.71102905 33.99620056 C9.04214436 41.34600659 10.57501956 48.63649683 12.2734375 55.91015625 C13.27491468 61.54750362 13.56086554 67.29125208 14 73 C5.09 73 -3.82 73 -13 73 C-13 64.00019818 -13 64.00019818 -12.3449707 60.81665039 C-12.20078201 60.09631119 -12.05659332 59.37597198 -11.90803528 58.63380432 C-11.74889145 57.87937546 -11.58974762 57.12494659 -11.42578125 56.34765625 C-11.26152145 55.53767685 -11.09726166 54.72769745 -10.92802429 53.89317322 C-10.39671483 51.28141767 -9.8547024 48.67201365 -9.3125 46.0625 C-8.9451932 44.26643341 -8.57866058 42.47020832 -8.21289062 40.67382812 C-7.48614969 37.10879571 -6.75569323 33.54455931 -6.02197266 29.98095703 C-4.65358255 23.32614765 -3.32551626 16.66347341 -2 10 C-1.60440339 8.020786 -1.20859909 6.0416135 -0.8125 4.0625 C-0.65394531 3.26972656 -0.49539063 2.47695313 -0.33203125 1.66015625 C-0.22246094 1.11230469 -0.11289062 0.56445312 0 0 Z " fill="#060606" transform="translate(617,38)"/>
<path d="M0 0 C0.66 0 1.32 0 2 0 C2 20.79 2 41.58 2 63 C-9.22 63 -20.44 63 -32 63 C-32 62.67 -32 62.34 -32 62 C-21.44 62 -10.88 62 0 62 C0 61.01 0 60.02 0 59 C-0.66 59 -1.32 59 -2 59 C-2.05066736 51.24042546 -2.08571984 43.48089352 -2.10986328 35.72119141 C-2.11992719 33.08087571 -2.13357952 30.44057117 -2.15087891 27.80029297 C-2.17510971 24.00745897 -2.18647923 20.21477221 -2.1953125 16.421875 C-2.20563507 15.23946228 -2.21595764 14.05704956 -2.22659302 12.83880615 C-2.22674408 11.73796692 -2.22689514 10.63712769 -2.22705078 9.50292969 C-2.231492 8.53474304 -2.23593323 7.5665564 -2.24050903 6.56903076 C-1.9915915 3.91018338 -1.35558554 2.27725613 0 0 Z " fill="#2C2C2C" transform="translate(522,11)"/>
<path d="M0 0 C0.33 0 0.66 0 1 0 C1.86855207 3.91361969 2.71732779 7.83127052 3.5625 11.75 C3.80935547 12.86117187 4.05621094 13.97234375 4.31054688 15.1171875 C4.53935547 16.18710938 4.76816406 17.25703125 5.00390625 18.359375 C5.32597046 19.83615723 5.32597046 19.83615723 5.65454102 21.34277344 C5.99263516 23.94335061 5.83856995 25.54291358 5 28 C4.34 26.68 3.68 25.36 3 24 C2.67 24 2.34 24 2 24 C1.67 50.07 1.34 76.14 1 103 C0.67 103 0.34 103 0 103 C0 69.01 0 35.02 0 0 Z " fill="#1E1E1E" transform="translate(241,55)"/>
<path d="M0 0 C0.33 0 0.66 0 1 0 C1 9.9 1 19.8 1 30 C-4 32 -4 32 -6 32 C-4.52821565 21.21336993 -2.31277928 10.63204844 0 0 Z " fill="#161616" transform="translate(310,55)"/>
<path d="M0 0 C1.94566808 2.91850212 2.5152457 4.57622848 3.1875 7.9375 C3.36667969 8.79214844 3.54585937 9.64679687 3.73046875 10.52734375 C4.00123705 13.01134859 3.77059444 14.64449502 3 17 C1.02 17.33 -0.96 17.66 -3 18 C-2.41509121 11.85845775 -1.45933748 5.99320151 0 0 Z " fill="#1E1E1E" transform="translate(617,38)"/>
<path d="M0 0 C0.33 0 0.66 0 1 0 C1 1.65 1 3.3 1 5 C-8.9 5 -18.8 5 -29 5 C-29.33 3.68 -29.66 2.36 -30 1 C-29.46536133 1.32145996 -28.93072266 1.64291992 -28.37988281 1.97412109 C-25.44981908 3.23716252 -23.1086981 3.32033241 -19.921875 3.4140625 C-18.76171875 3.45273438 -17.6015625 3.49140625 -16.40625 3.53125 C-15.1996875 3.5621875 -13.993125 3.593125 -12.75 3.625 C-11.52796875 3.66367188 -10.3059375 3.70234375 -9.046875 3.7421875 C-6.0314006 3.83642108 -3.01593172 3.92203455 0 4 C0 2.68 0 1.36 0 0 Z " fill="#868686" transform="translate(669,153)"/>
<path d="M0 0 C0.33 0 0.66 0 1 0 C1.41644184 2.10018513 1.80753303 4.20541042 2.1875 6.3125 C2.40792969 7.48425781 2.62835937 8.65601563 2.85546875 9.86328125 C3 13 3 13 1.55078125 14.91796875 C1.03902344 15.27503906 0.52726563 15.63210937 0 16 C-0.19672365 14.27185839 -0.38196799 12.54240803 -0.5625 10.8125 C-0.71912109 9.36810547 -0.71912109 9.36810547 -0.87890625 7.89453125 C-0.99758751 5.05766623 -0.67765639 2.74576329 0 0 Z " fill="#101010" transform="translate(667,130)"/>
<path d="M0 0 C2.475 0.495 2.475 0.495 5 1 C4.125 5.875 4.125 5.875 3 7 C2.63837971 8.32594105 2.30271961 9.65938457 2 11 C0 3.375 0 3.375 0 0 Z " fill="#2D2D2D" transform="translate(658,100)"/>
<path d="M0 0 C1.15837573 3.47512718 0.77265943 5.13670286 0.0625 8.6875 C-0.13214844 9.68136719 -0.32679688 10.67523438 -0.52734375 11.69921875 C-0.68332031 12.45847656 -0.83929688 13.21773437 -1 14 C-1.33 14 -1.66 14 -2 14 C-2.24915939 12.23186888 -2.47366632 10.46025018 -2.6875 8.6875 C-2.81511719 7.70136719 -2.94273437 6.71523437 -3.07421875 5.69921875 C-3 3 -3 3 -1.51953125 1.14453125 C-1.01808594 0.76683594 -0.51664062 0.38914062 0 0 Z " fill="#1F1F1F" transform="translate(283,84)"/>
<path d="M0 0 C0.99 0.66 1.98 1.32 3 2 C2.01 2.495 2.01 2.495 1 3 C1 4.32 1 5.64 1 7 C-0.98 7.99 -2.96 8.98 -5 10 C-3.33333333 6.66666667 -1.66666667 3.33333333 0 0 Z " fill="#2F2F2F" transform="translate(770,69)"/>
<path d="M0 0 C1.40783184 2.62795276 2.50772334 5.04634002 3 8 C2.67 8.66 2.34 9.32 2 10 C1.34 10 0.68 10 0 10 C-0.74926071 6.33694766 -1.2380014 3.57644848 0 0 Z " fill="#292929" transform="translate(129,87)"/>
<path d="M0 0 C0.33 0 0.66 0 1 0 C1.08086147 1.79093191 1.13912702 3.58289628 1.1875 5.375 C1.22230469 6.37273438 1.25710938 7.37046875 1.29296875 8.3984375 C1.19628906 9.25695312 1.09960938 10.11546875 1 11 C0.01 11.66 -0.98 12.32 -2 13 C-1.85769192 11.58297487 -1.71099254 10.1663904 -1.5625 8.75 C-1.48128906 7.96109375 -1.40007812 7.1721875 -1.31640625 6.359375 C-1.02365007 4.17635361 -0.57935581 2.1226818 0 0 Z " fill="#313131" transform="translate(310,55)"/>
<path d="M0 0 C0.185625 0.9590625 0.185625 0.9590625 0.375 1.9375 C0.684375 2.9584375 0.684375 2.9584375 1 4 C1.66 4.33 2.32 4.66 3 5 C2.01 5.495 2.01 5.495 1 6 C1 7.65 1 9.3 1 11 C0.01 11.33 -0.98 11.66 -2 12 C-1.85904936 10.3745692 -1.71207913 8.74965949 -1.5625 7.125 C-1.48128906 6.22007812 -1.40007813 5.31515625 -1.31640625 4.3828125 C-1 2 -1 2 0 0 Z " fill="#C6C6C6" transform="translate(571,135)"/>
<path d="M0 0 C0.66 0.33 1.32 0.66 2 1 C0.35 2.98 -1.3 4.96 -3 7 C-4.32 6.67 -5.64 6.34 -7 6 C-7 5.34 -7 4.68 -7 4 C-6.030625 3.525625 -5.06125 3.05125 -4.0625 2.5625 C-1.19522563 1.29806053 -1.19522563 1.29806053 0 0 Z " fill="#3B3B3B" transform="translate(761,81)"/>
<path d="M0 0 C0.33 0 0.66 0 1 0 C3.27678571 8.03571429 3.27678571 8.03571429 2 12 C1.34 11.34 0.68 10.68 0 10 C-0.33 10 -0.66 10 -1 10 C-0.67 6.7 -0.34 3.4 0 0 Z " fill="#C9C9C9" transform="translate(266,59)"/>
<path d="M0 0 C0.33 0 0.66 0 1 0 C0.67 3.96 0.34 7.92 0 12 C0.66 12.33 1.32 12.66 2 13 C0.68 13.33 -0.64 13.66 -2 14 C-1.85795259 12.41632253 -1.71119847 10.83306682 -1.5625 9.25 C-1.48128906 8.36828125 -1.40007812 7.4865625 -1.31640625 6.578125 C-1.03761535 4.30649548 -0.61209423 2.20148177 0 0 Z " fill="#A6A6A6" transform="translate(292,39)"/>
<path d="M0 0 C2 1 2 1 2.6328125 2.84765625 C2.79523438 3.57855469 2.95765625 4.30945313 3.125 5.0625 C3.29257813 5.79597656 3.46015625 6.52945313 3.6328125 7.28515625 C3.75398438 7.85105469 3.87515625 8.41695312 4 9 C2.68 8.34 1.36 7.68 0 7 C0 6.01 0 5.02 0 4 C-0.66 4 -1.32 4 -2 4 C-1.34 2.68 -0.68 1.36 0 0 Z " fill="#2C2C2C" transform="translate(106,27)"/>
<path d="M0 0 C0.66 0 1.32 0 2 0 C2 2.31 2 4.62 2 7 C1.01 7.33 0.02 7.66 -1 8 C-1.125 2.25 -1.125 2.25 0 0 Z " fill="#111111" transform="translate(260,18)"/>
<path d="M0 0 C1.875 0.25 1.875 0.25 4 1 C5.25 3.0625 5.25 3.0625 6 5 C4.35 5 2.7 5 1 5 C0.67 3.35 0.34 1.7 0 0 Z " fill="#D9D9D9" transform="translate(743,153)"/>
<path d="M0 0 C0.66 0 1.32 0 2 0 C2 0.66 2 1.32 2 2 C2.66 2 3.32 2 4 2 C3.67 3.98 3.34 5.96 3 8 C2.01 7.34 1.02 6.68 0 6 C-0.1875 2.875 -0.1875 2.875 0 0 Z " fill="#EFEFEF" transform="translate(289,143)"/>
<path d="M0 0 C0.66 0.99 1.32 1.98 2 3 C0.75453595 6.73639216 -0.63404953 7.18756513 -4 9 C-2.80100302 5.9168649 -1.52299523 2.93720508 0 0 Z " fill="#CCCCCC" transform="translate(840,41)"/>
</svg>
