<?xml version="1.0" encoding="UTF-8"?>
<svg version="1.1" xmlns="http://www.w3.org/2000/svg" width="1542" height="700">
<path d="M0 0 C508.86 0 1017.72 0 1542 0 C1542 231 1542 462 1542 700 C1033.14 700 524.28 700 0 700 C0 469 0 238 0 0 Z " fill="#010101" transform="translate(0,0)"/>
<path d="M0 0 C51.48 0 102.96 0 156 0 C154 9 154 9 152 12 C151.31526605 14.32809543 150.65146849 16.66237777 150 19 C148.65306623 23.03273583 147.11290137 26.865622 145.125 30.625 C142.1022477 36.48520177 140.1630371 42.78671221 138 49 C137.443757 50.50233151 136.88256531 52.00285879 136.3125 53.5 C135.13264081 56.64629117 134.03848379 59.80466527 133 63 C132.34 63 131.68 63 131 63 C130.9175 63.94875 130.835 64.8975 130.75 65.875 C129.75952453 72.72578864 126.50982542 78.93282735 123.5625 85.125 C121.08997022 90.44284098 119.37812893 95.88591513 117.78735352 101.51806641 C116.68588507 105.29786199 115.39802048 107.91961597 113 111 C112.14624824 113.49730564 112.14624824 113.49730564 111.5625 116.1875 C110.42097447 120.68188324 108.92796979 124.70150405 106.96875 128.89453125 C105.45115022 132.19286304 104.23273741 135.58719988 103 139 C102.46826172 140.45792969 102.46826172 140.45792969 101.92578125 141.9453125 C100.94764665 144.62917655 99.97263692 147.31413968 99 150 C98.34 150 97.68 150 97 150 C96.90203125 150.556875 96.8040625 151.11375 96.703125 151.6875 C95.7647372 156.4765136 94.44019995 160.35906143 92.13671875 164.640625 C90.12142696 168.82356741 88.73974359 173.24887479 87.21484375 177.62890625 C86.25823212 180.28342663 85.24523814 182.81812626 84.0625 185.375 C81.85131086 190.16441776 80.05102289 195.09209621 78.22436523 200.03735352 C76.47582111 204.76518869 74.62979136 209.43939521 72.6640625 214.08203125 C71.83641167 216.13420232 71.83641167 216.13420232 72 219 C72.680625 217.7934375 72.680625 217.7934375 73.375 216.5625 C75 214 75 214 77 213 C77.77801468 211.69456713 78.49848327 210.35451753 79.1875 209 C81.46307674 204.78719759 84.0764702 201.1512576 87.06640625 197.421875 C89.16098265 194.79836517 91.17791187 192.12664144 93.1875 189.4375 C93.950625 188.4165625 94.71375 187.395625 95.5 186.34375 C95.90347656 185.80363281 96.30695313 185.26351562 96.72265625 184.70703125 C98.06210671 182.91700113 99.40558873 181.1300569 100.75 179.34375 C106.86025317 171.22076811 112.90937971 163.0555604 118.92407227 154.86157227 C122.26688391 150.31825482 125.65860063 145.82465688 129.125 141.375 C133.44414094 135.80968069 137.49591623 130.08319611 141.53076172 124.30957031 C145.4272691 118.75532179 149.49679514 113.37023332 153.671875 108.0234375 C156.68905658 104.10515136 159.55645905 100.08797201 162.40625 96.046875 C164 94 164 94 166 93 C166.90184647 91.40442548 167.80073335 89.80712937 168.6875 88.203125 C173.19081053 80.64399661 178.91165844 73.78193334 184.29199219 66.83081055 C187.55535867 62.60576062 190.70479466 58.3094046 193.828125 53.98046875 C196.39293191 50.46077869 199.00596742 46.97941988 201.625 43.5 C206.18236141 37.44322799 210.69712582 31.35659364 215.1875 25.25 C220.41868229 18.13619246 225.68503554 11.05142085 231 4 C231.37313633 3.30173104 231.74627266 2.60346207 232.13071615 1.88403344 C234.47681382 -0.48057612 236.17598483 -0.48090807 239.42670134 -0.5240339 C240.16965396 -0.51352585 240.91260659 -0.5030178 241.67807293 -0.49219131 C242.86850356 -0.49911438 242.86850356 -0.49911438 244.08298329 -0.50617731 C246.76493746 -0.51683665 249.44594733 -0.49876233 252.12785339 -0.48101807 C254.06085143 -0.48276101 255.99384855 -0.48626081 257.9268406 -0.49137473 C263.25611909 -0.50035296 268.58507829 -0.48427204 273.91431606 -0.46426249 C279.65460341 -0.44704276 285.39487171 -0.45283029 291.13517761 -0.45587158 C301.08645608 -0.45797242 311.03762992 -0.44538656 320.98888206 -0.42292023 C335.37683416 -0.39045851 349.7647355 -0.37999918 364.15272025 -0.37496826 C387.49433898 -0.36620645 410.83590187 -0.33960112 434.17749023 -0.30175781 C456.85619822 -0.26503161 479.53489129 -0.23669152 502.21362305 -0.21972656 C502.91244664 -0.21920046 503.61127022 -0.21867435 504.33127028 -0.21813231 C511.34902248 -0.21285831 518.36677479 -0.20775504 525.3845272 -0.20277687 C539.68101962 -0.1926315 553.97751107 -0.18134649 568.27400208 -0.16937256 C570.24362478 -0.1677242 570.24362478 -0.1677242 572.25303785 -0.16604254 C615.50204716 -0.12934772 658.75102741 -0.06641164 702 0 C701.24427265 3.11239836 700.30575026 6.07259244 699.21484375 9.0859375 C698.67174561 10.59063599 698.67174561 10.59063599 698.11767578 12.12573242 C697.72821777 13.19799072 697.33875977 14.27024902 696.9375 15.375 C696.53772949 16.47884033 696.13795898 17.58268066 695.72607422 18.7199707 C694.89574258 21.01198082 694.06467892 23.30372587 693.23291016 25.59521484 C692.05852178 28.83838717 690.89300507 32.08459464 689.73046875 35.33203125 C689.02873698 37.28388694 688.3269182 39.23571135 687.625 41.1875 C687.30394287 42.08839355 686.98288574 42.98928711 686.65209961 43.91748047 C685.36862714 47.47165983 684.07417856 50.85324002 682.3671875 54.23046875 C680.46372661 58.08633666 679.73795908 62.01169143 678.84375 66.1953125 C678 69 678 69 676.51171875 70.9765625 C674.54117312 73.61414037 674.04197999 76.05418289 673.3125 79.25 C672.93544922 80.86648437 672.93544922 80.86648437 672.55078125 82.515625 C672.36902344 83.33546875 672.18726563 84.1553125 672 85 C671.34 85 670.68 85 670 85 C669.70609375 86.34964844 669.70609375 86.34964844 669.40625 87.7265625 C666.62903647 99.86163872 662.41681935 111.37611444 658 123 C657.34 123 656.68 123 656 123 C655.87625 123.9075 655.7525 124.815 655.625 125.75 C655 129 655 129 654.0234375 130.9140625 C652.59015646 133.83532997 652.15422198 136.79605683 651.5625 139.9765625 C651 142 651 142 649 144 C648.500743 145.9854845 648.07394997 147.98951183 647.6875 150 C646.5356847 155.2960352 644.90224669 159.46252044 642.33203125 164.19140625 C640.03951408 169.0251888 638.63430616 174.14720522 637.11328125 179.265625 C636.13847623 182.53549728 635.0984147 185.76995859 634 189 C633.34 189 632.68 189 632 189 C631.34 191.97 630.68 194.94 630 198 C572.91 198 515.82 198 457 198 C455.515 203.445 455.515 203.445 454 209 C452.71210727 212.36513906 451.39991187 215.68385895 450 219 C446.14001209 228.15737718 443.08484905 237.56036189 440 247 C439.34 247 438.68 247 438 247 C437.67 249.31 437.34 251.62 437 254 C436.34 254 435.68 254 435 254 C434.67 255.98 434.34 257.96 434 260 C490.76 260 547.52 260 606 260 C603.75627907 270.09674419 603.75627907 270.09674419 602.0625 274.0625 C601.711875 274.90554688 601.36125 275.74859375 601 276.6171875 C600.67 277.40351563 600.34 278.18984375 600 279 C598.26591817 283.44829687 596.69423817 287.91090226 595.2121582 292.44995117 C593.36683929 298.09547589 591.41239441 303.58583348 588.89453125 308.97265625 C587.97428646 311.05827654 587.25524979 313.14136798 586.5625 315.3125 C585.0434157 320.06172508 583.13142093 324.61571892 581.18359375 329.203125 C580.79300781 330.12609375 580.40242188 331.0490625 580 332 C579.64550781 332.83402344 579.29101562 333.66804688 578.92578125 334.52734375 C577.95977742 337.10742992 577.34338457 339.6232507 576.75 342.3125 C575.00786169 349.49329344 572.38968261 356.25420797 569.72119141 363.12841797 C567.32033498 369.35894111 565.05992691 375.6485587 563 382 C562.34 382 561.68 382 561 382 C560.773125 383.216875 560.54625 384.43375 560.3125 385.6875 C558.76388902 391.9556873 556.31780335 397.97371128 554 404 C497.57 404 441.14 404 383 404 C382.67 406.31 382.34 408.62 382 411 C381.34 411 380.68 411 380 411 C379.9175 411.825 379.835 412.65 379.75 413.5 C379.02135015 416.90036595 377.7899623 419.42017973 376.171875 422.46875 C374.67325839 425.70576187 373.5887316 429.04712959 372.5 432.4375 C370.92351802 437.33021588 369.20377868 442.04270058 367.03125 446.703125 C361.90978286 458.11002909 357.94940439 470.15178682 354 482 C410.1 482 466.2 482 524 482 C522.88664987 489.79345088 522.88664987 489.79345088 521.1875 493.625 C518.66638417 499.61495039 516.85827608 505.77957351 515 512 C514.67 512.99 514.34 513.98 514 515 C513.34 515 512.68 515 512 515 C511.84144531 515.71542969 511.68289063 516.43085937 511.51953125 517.16796875 C509.95331251 523.8568477 507.88777895 530.09113352 505.33984375 536.46484375 C502.91128019 542.87256975 500.97836997 549.44191402 499 556 C498.34 556 497.68 556 497 556 C496.90203125 556.54527344 496.8040625 557.09054687 496.703125 557.65234375 C495.68898009 562.76678143 494.15112196 567.17463377 491.9375 571.88671875 C490.62962385 574.83488957 489.87089319 577.89744302 489 581 C488.39111123 582.56884853 487.76450325 584.13087967 487.125 585.6875 C485.16963434 590.46324439 483.53129107 595.30680255 481.9296875 600.2109375 C481.19324306 602.42027082 480.41205153 604.58316631 479.5625 606.75 C477.11404937 613.40978571 475.1164425 620.22738401 473 627 C313.61 627 154.22 627 -10 627 C-10 614.08967268 -9.85758988 601.34357202 -9.16015625 588.4765625 C-9.07245856 586.78992821 -8.98518311 585.10327192 -8.89830017 583.41659546 C-8.71729972 579.92257787 -8.5330362 576.42875539 -8.34594727 572.93505859 C-8.10836095 568.49807021 -7.87648532 564.06080785 -7.6467371 559.62340736 C-7.42393703 555.32435956 -7.19844963 551.02545397 -6.97265625 546.7265625 C-6.93102922 545.93048206 -6.8894022 545.13440163 -6.84651375 544.31419754 C-6.44437412 536.65728445 -6.01606632 529.00695694 -5.45239258 521.35986328 C-5.11184906 516.7373391 -4.86194756 512.1495103 -4.7890625 507.515625 C-4.76284433 506.17992061 -4.73604069 504.84422763 -4.70874023 503.50854492 C-4.69543671 502.8179599 -4.68213318 502.12737488 -4.66842651 501.41586304 C-4.30390071 483.23542682 -3.24932034 465.11615171 -2.01611328 446.97558594 C-1.11133756 433.2983518 -0.81900838 419.70608991 -1 406 C-1.3049942 406.93340462 -1.3049942 406.93340462 -1.6161499 407.88566589 C-1.88429504 408.69965347 -2.15244019 409.51364105 -2.42871094 410.35229492 C-2.69391541 411.16018967 -2.95911987 411.96808441 -3.23236084 412.80046082 C-4.04171914 415.11953909 -5.03583484 417.17916051 -6.25 419.3125 C-9.28540885 425.15474776 -11.28396328 431.31060728 -13.40429688 437.52563477 C-15.35169738 443.21389789 -17.45709436 448.78178001 -19.859375 454.296875 C-22.21212474 459.8725696 -24.21607041 465.57361 -26.19384766 471.29101562 C-28.25932774 477.2528347 -30.3261761 483.1641336 -33.00805664 488.88305664 C-36.35192424 496.01932932 -39.33253867 503.25629975 -42.125 510.625 C-42.47175781 511.52734375 -42.81851563 512.4296875 -43.17578125 513.359375 C-45.01668471 518.1979182 -46.59922051 523.01299253 -48 528 C-48.92716685 530.68673866 -49.92732592 533.34352206 -50.9375 536 C-51.18951172 536.67289063 -51.44152344 537.34578125 -51.70117188 538.0390625 C-54.16768397 544.57437333 -56.96916667 550.94565707 -59.85449219 557.30493164 C-63.23080186 564.77400713 -66.26259382 572.22423198 -68.921875 579.98046875 C-69.8331388 582.53266772 -70.83981789 584.93033056 -72 587.375 C-73.89814075 591.46212565 -75.19837924 595.69498061 -76.5 600 C-78.28182227 605.89115836 -80.33114585 611.44465982 -83 617 C-84.45765663 620.29754321 -85.85888914 623.57666743 -87 627 C-137.16 627 -187.32 627 -239 627 C-239 622.5981413 -238.79084953 620.84323483 -237.1875 617 C-236.85105469 616.175 -236.51460937 615.35 -236.16796875 614.5 C-235 612 -235 612 -233.484375 609.54296875 C-231.90628555 606.83945236 -230.99120259 604.29790017 -230.0625 601.3125 C-227.97662687 594.84155268 -225.55307429 588.57996785 -222.84765625 582.34375 C-219.90569473 575.50110467 -217.47480567 568.57800225 -215.1628418 561.50512695 C-213.59883103 556.73840166 -211.9217757 552.06206512 -210 547.42578125 C-206.81286435 539.69448734 -203.91924976 531.83588095 -201 524 C-200.34 524 -199.68 524 -199 524 C-198.74734375 522.74703125 -198.4946875 521.4940625 -198.234375 520.203125 C-196.9795383 514.57177013 -195.16259781 509.18760992 -193.25 503.75 C-192.89510498 502.73437988 -192.54020996 501.71875977 -192.17456055 500.67236328 C-189.88731945 494.2301992 -187.36081959 488.06420177 -184.375 481.9140625 C-181.25373406 475.29910683 -178.74412648 468.39554579 -176.5 461.4375 C-175.3929973 458.02372631 -174.08674155 454.74237527 -172.6875 451.4375 C-168.77813345 442.19396764 -165.18965789 432.80849246 -162.125 423.25 C-158.79870835 413.04656527 -154.65583086 403.03788114 -150.34765625 393.2109375 C-149.19232192 390.45822787 -148.28502014 387.81123445 -147.5 384.9375 C-146.36754622 381.02109736 -144.85673829 377.63611248 -143 374 C-142.54297188 372.67323351 -142.10760065 371.33891728 -141.6875 370 C-140.39102175 365.93997599 -138.77493068 362.08994882 -137.0625 358.1875 C-134.31822441 351.89824996 -132.0390274 345.54887623 -130 339 C-129.34 339 -128.68 339 -128 339 C-127.896875 337.80375 -127.79375 336.6075 -127.6875 335.375 C-127.19220916 331.37779362 -125.83542375 328.60025428 -124 325 C-123.47026218 323.15410946 -122.97278792 321.29879138 -122.5 319.4375 C-121.46633728 315.43205697 -120.168552 312.52389701 -118 309 C-116.87773607 305.69982663 -115.92033661 302.36151316 -115 299 C-114.34 299 -113.68 299 -113 299 C-112.7215625 297.0509375 -112.7215625 297.0509375 -112.4375 295.0625 C-110.86312127 286.98068919 -107.26106018 279.51613337 -104 272 C-103.34 272 -102.68 272 -102 272 C-101.9175 271.113125 -101.835 270.22625 -101.75 269.3125 C-100.39048321 259.85332687 -96.66562352 250.76874645 -93 242 C-87.37543795 228.10938118 -82.10228203 214.08955037 -77 200 C-76.34 200 -75.68 200 -75 200 C-74.86875732 199.27796387 -74.73751465 198.55592773 -74.60229492 197.81201172 C-74.02438484 195.11384865 -73.26610107 192.61329913 -72.36328125 190.0078125 C-72.03593994 189.06204346 -71.70859863 188.11627441 -71.37133789 187.1418457 C-71.02192139 186.14628662 -70.67250488 185.15072754 -70.3125 184.125 C-69.95599365 183.10301514 -69.5994873 182.08103027 -69.23217773 181.02807617 C-66.72033848 173.88919418 -64.03314494 166.85086372 -61.12890625 159.86328125 C-60.22255407 157.56447104 -59.51022182 155.41035824 -59 153 C-58.34 153 -57.68 153 -57 153 C-56.938125 151.7625 -56.87625 150.525 -56.8125 149.25 C-56.11773102 142.99707914 -53.5524622 137.69120424 -51 132 C-48.15982 125.34732612 -45.46996933 118.67484334 -43.03515625 111.86328125 C-40.64366481 105.24832569 -38.18188931 98.63893669 -35.375 92.1875 C-34.10767335 89.2496064 -32.98294883 86.28194475 -31.875 83.28125 C-30.84673367 80.60041279 -29.73921557 77.95876197 -28.625 75.3125 C-25.11486702 66.92191185 -21.69417545 58.56387569 -19.1875 49.8125 C-17.30610573 43.46951362 -14.67624068 37.60286431 -11.93139648 31.60083008 C-9.5630136 26.38460984 -7.58348407 21.16344466 -5.87109375 15.69140625 C-4.6997716 12.0723885 -3.28088904 8.57394991 -1.83203125 5.05859375 C-1.16000953 3.39589212 -0.56711462 1.70134386 0 0 Z " fill="#FEFEFE" transform="translate(838,45)"/>
<path d="M0 0 C1.96756712 0.00138269 1.96756712 0.00138269 3.97488308 0.00279331 C5.0664732 0.00151167 5.0664732 0.00151167 6.18011564 0.00020415 C8.63691133 -0.00145281 11.09363987 0.00407421 13.55042934 0.00952244 C15.30424911 0.00980429 17.058069 0.00964662 18.81188869 0.00907993 C23.58854689 0.00879188 28.3651802 0.01468988 33.14183259 0.02165389 C38.12800074 0.02788611 43.1141694 0.02849112 48.10034084 0.0296793 C57.54929315 0.032793 66.99823394 0.04100692 76.44718117 0.05102879 C87.20153264 0.06218871 97.95588466 0.06770007 108.71024048 0.07272422 C130.83918682 0.0831895 152.96812279 0.1007897 175.0970602 0.12304783 C175.10801032 2.64999667 175.11594756 5.17689704 175.12220669 7.70385838 C175.12557789 8.41078579 175.12894909 9.1177132 175.13242245 9.84606266 C175.14426583 16.24229233 174.74009731 22.56610884 174.1595602 28.93554783 C174.07254848 29.98291111 173.98553677 31.03027439 173.89588833 32.10937595 C173.23533057 39.70823674 173.23533057 39.70823674 172.0970602 43.12304783 C171.83890217 45.82872129 171.62578933 48.52130397 171.4486227 51.23242283 C171.39165218 52.05409443 171.33468166 52.87576603 171.27598476 53.72233677 C171.15276461 55.50397708 171.03126168 57.28573679 170.91126919 59.06759739 C170.58848522 63.85359863 170.25186287 68.63863429 169.9173727 73.42382908 C169.84919338 74.40416615 169.78101406 75.38450321 169.7107687 76.39454746 C169.04432453 85.9528403 168.33215712 95.50731151 167.5970602 105.06054783 C167.50451962 106.26839436 167.50451962 106.26839436 167.41010952 107.50064182 C166.76581345 115.88917542 166.09680324 124.27447951 165.3470602 132.65429783 C163.75921251 150.43255806 162.48625046 168.20737938 161.41056728 186.02453709 C160.56740026 199.96324126 159.64556192 213.89045371 158.5345602 227.81054783 C158.44082623 228.98531178 158.44082623 228.98531178 158.34519863 230.18380833 C157.5488556 240.09537224 156.70547909 250.00295386 155.65540981 259.89135838 C155.16292408 264.6626792 155.02666426 269.3252936 155.0970602 274.12304783 C155.72367967 272.24318943 156.35026469 270.36331954 156.97669888 268.48339939 C157.51924558 266.85625116 158.06238566 265.22930066 158.60609341 263.60254002 C159.91886162 259.6722986 161.225228 255.74050069 162.5033102 251.79882908 C162.72027554 251.13439793 162.93724087 250.46996677 163.16078091 249.78540134 C163.75063389 247.97705756 164.33609125 246.1672817 164.92127895 244.35742283 C166.09435044 241.13050192 167.55823357 238.18822411 169.0970602 235.12304783 C169.6204175 233.53274958 170.10268009 231.92808638 170.5345602 230.31054783 C171.96160211 225.34563119 173.90410871 220.79137639 176.0970602 216.12304783 C181.10387038 205.42300994 184.86919669 194.31639193 188.1048727 182.96289158 C189.12010076 180.05710105 190.51894808 177.7532347 192.0970602 175.12304783 C192.72057475 172.93570296 192.72057475 172.93570296 193.0345602 170.74804783 C193.79180174 166.89184305 195.0746778 164.24371326 197.1517477 160.95117283 C198.6023866 158.14580504 199.07486896 155.23216409 199.6048727 152.13867283 C200.0970602 150.12304783 200.0970602 150.12304783 202.0970602 147.12304783 C202.79073608 145.13225446 203.45365897 143.13065319 204.0970602 141.12304783 C204.96009627 138.82684883 205.83522117 136.53515903 206.7220602 134.24804783 C207.16807583 133.09562595 207.61409145 131.94320408 208.0736227 130.75586033 C208.41135708 129.8870322 208.74909145 129.01820408 209.0970602 128.12304783 C209.7570602 128.12304783 210.4170602 128.12304783 211.0970602 128.12304783 C211.33940395 126.92808689 211.5817477 125.73312595 211.8314352 124.50195408 C215.2133444 108.28923473 215.2133444 108.28923473 219.0970602 101.12304783 C222.98934171 93.82502001 225.2945637 85.9954507 227.5345602 78.06054783 C228.88657172 73.46076951 230.8000938 69.24932164 232.83534145 64.91601658 C236.57641185 56.63469976 239.25740295 47.85754428 242.03065395 39.21289158 C243.80961738 33.73756056 245.73100786 28.46165705 248.14784145 23.23632908 C249.63493945 19.92554712 250.85704933 16.53307773 252.0970602 13.12304783 C252.7570602 13.12304783 253.4170602 13.12304783 254.0970602 13.12304783 C254.2208102 12.09179783 254.3445602 11.06054783 254.4720602 9.99804783 C255.0970602 6.12304783 255.0970602 6.12304783 257.0970602 0.12304783 C304.2870602 0.12304783 351.4770602 0.12304783 400.0970602 0.12304783 C399.28983861 4.96637741 398.19995731 9.41132984 396.7220602 14.06054783 C396.51323208 14.73795017 396.30440395 15.41535252 396.0892477 16.1132822 C394.68415826 20.58129527 392.98236176 24.83013162 391.0970602 29.12304783 C390.3149273 31.11865604 389.54401966 33.11870121 388.7845602 35.12304783 C387.41845499 38.7111314 386.03856881 42.28980293 384.5814352 45.84179783 C381.69665928 52.88375006 379.17451073 59.92252902 377.0189352 67.22851658 C376.22840885 69.71063534 375.33474741 71.96204818 374.2220602 74.31054783 C370.78147482 81.60458885 368.57587958 89.46349594 366.0970602 97.12304783 C365.4370602 97.12304783 364.7770602 97.12304783 364.0970602 97.12304783 C363.9733102 98.13367283 363.8495602 99.14429783 363.7220602 100.18554783 C362.71090295 106.55583855 360.74960795 112.0647811 358.0970602 117.89648533 C355.44449628 123.80258468 353.54737124 129.87890599 351.6595602 136.06054783 C350.10963781 141.12735775 348.41608255 145.92517445 346.1283102 150.71289158 C344.7280107 153.98556124 343.67866092 157.36056295 342.5970602 160.74804783 C340.13208586 168.45508812 340.13208586 168.45508812 337.9720602 171.81054783 C336.21345779 174.91741209 335.54882849 177.06578842 334.7845602 180.49804783 C333.38255507 186.67465932 331.11752074 192.27999104 328.60951138 198.0717783 C326.7606322 202.36709277 325.35169447 206.60744607 324.0970602 211.12304783 C323.48817528 212.59719028 322.84624218 214.05849767 322.1595602 215.49804783 C320.12269315 219.94897955 318.57829402 224.4631663 317.0970602 229.12304783 C316.55771662 230.74882035 316.01609165 232.373838 315.4720602 233.99804783 C315.11241177 235.07699314 315.11241177 235.07699314 314.7454977 236.17773533 C314.19601854 237.82617283 313.64653937 239.47461033 313.0970602 241.12304783 C312.4370602 241.12304783 311.7770602 241.12304783 311.0970602 241.12304783 C311.0145602 242.09242283 310.9320602 243.06179783 310.8470602 244.06054783 C310.29986391 247.88332193 308.91137601 250.92439163 307.2767477 254.39648533 C304.3107685 261.25162931 302.09168519 268.53069642 300.10096645 275.72070408 C299.1542634 278.92918017 298.00317769 281.87578341 296.6595602 284.93554783 C294.6897107 289.55111896 293.14354964 294.12897272 291.7767477 298.95117283 C290.86867467 301.85283149 289.50130612 304.43157649 288.0970602 307.12304783 C287.30748493 309.13430425 286.56673694 311.15751668 285.84315395 313.19336033 C285.0970602 315.12304783 285.0970602 315.12304783 284.0658102 317.09961033 C283.05313573 319.2147933 282.59373351 321.07399682 282.1595602 323.37304783 C281.21909826 327.80973091 279.80023849 331.9259299 278.0970602 336.12304783 C277.09570438 338.60167859 276.09523965 341.08063863 275.0970602 343.56054783 C274.83054653 344.22207859 274.56403286 344.88360935 274.28944302 345.5651865 C272.69593405 349.54648453 271.24796323 353.53466031 269.93690395 357.61523533 C264.59178873 373.57599799 264.59178873 373.57599799 260.8470602 380.56054783 C259.42837267 383.4485903 258.78704211 385.20711581 258.2220602 388.24804783 C257.17294434 393.74160001 254.82983489 398.63227964 252.5345602 403.69336033 C251.08196709 407.15905802 250.05657532 410.49718782 249.0970602 414.12304783 C248.4370602 414.12304783 247.7770602 414.12304783 247.0970602 414.12304783 C246.9939352 415.13367283 246.8908102 416.14429783 246.7845602 417.18554783 C246.19164756 420.58132022 245.27055049 423.14963315 243.88831997 426.26928806 C242.65344702 429.16234276 241.69862046 432.1343802 240.7220602 435.12304783 C240.51145962 435.76097263 240.30085903 436.39889744 240.08387661 437.0561533 C238.96379702 440.45126483 237.86216309 443.85201952 236.7689352 447.25586033 C236.55156704 447.92488377 236.33419888 448.5939072 236.1102438 449.28320408 C235.5047051 451.1475405 234.90615072 453.01414119 234.3079977 454.88086033 C233.17211137 457.92210439 231.77351477 460.36000233 230.0970602 463.12304783 C229.37732261 465.04146605 228.71186748 466.98097302 228.0970602 468.93554783 C226.81618138 472.97565311 225.41646844 476.94023112 223.91346645 480.90307713 C222.3676559 485.10644296 220.99484089 489.36866731 219.5970602 493.62304783 C217.80394516 499.08069494 215.99264316 504.51660594 213.94569302 509.88476658 C212.87380421 512.71188873 211.83376829 515.55017867 210.7923727 518.38867283 C210.37342739 519.52691502 209.95448208 520.6651572 209.52284145 521.83789158 C208.66164903 524.17836948 207.80224802 526.51950739 206.94471645 528.86132908 C204.8931416 534.42630429 202.78202653 539.94263873 200.46815395 545.40429783 C198.08399696 551.04892031 196.16110473 556.76305639 194.33729458 562.60742283 C193.16715439 566.24928381 191.89851745 569.65534848 190.13221645 573.05273533 C187.79860524 577.54389883 186.20565064 582.20824557 184.5970602 586.99804783 C182.5387124 593.01181298 180.42464961 598.95834438 177.9954977 604.83398533 C176.54657278 608.52559404 175.34204226 612.29524935 174.12440395 616.06836033 C172.87423969 619.78557878 171.47410097 623.45093911 170.0970602 627.12304783 C117.6270602 627.12304783 65.1570602 627.12304783 11.0970602 627.12304783 C11.0970602 612.50400021 11.0970602 612.50400021 11.64784145 606.46289158 C11.70622692 605.80380802 11.76461239 605.14472446 11.82476711 604.46566868 C11.9498498 603.06060082 12.07743152 601.65575337 12.20741177 600.2511301 C12.41765193 597.97286176 12.61960121 595.69397486 12.81971645 593.41479588 C13.36327903 587.23934088 13.91801706 581.06492919 14.4852438 574.89160252 C14.86578501 570.74043758 15.23626974 566.58847632 15.5970602 562.43554783 C15.65932796 561.71893986 15.72159573 561.00233189 15.78575039 560.26400852 C17.03492245 545.65140447 17.74764149 531.01939312 18.4720602 516.37304783 C19.46505926 496.30809224 20.95471886 476.34666389 22.85810757 456.3486948 C25.05572289 433.13376505 26.51335033 409.8989877 27.84095669 386.62158298 C27.899911 385.59198397 27.899911 385.59198397 27.9600563 384.54158497 C28.14409416 381.32425105 28.32544554 378.10681794 28.50155544 374.88903904 C28.82967268 369.03981988 29.25336638 363.22540946 29.87116909 357.39981174 C30.22470861 353.83647538 30.41551937 350.26894107 30.5970602 346.69336033 C30.63766567 345.93691227 30.67827114 345.18046421 30.72010708 344.40109348 C30.84793677 342.01685458 30.97281562 339.63247604 31.0970602 337.24804783 C31.26158622 334.10470115 31.4279647 330.96146462 31.5970602 327.81836033 C31.63763042 327.06139866 31.67820065 326.30443699 31.72000027 325.52453709 C31.95983583 321.18727085 32.26939063 316.86435432 32.65565395 312.53711033 C33.07376632 307.80041273 33.21966439 303.12590186 33.1595602 298.37304783 C33.15279263 297.30957127 33.15279263 297.30957127 33.14588833 296.22461033 C33.13439806 294.52405042 33.11648202 292.82353564 33.0970602 291.12304783 C32.68713833 292.35281345 32.27721645 293.58257908 31.8548727 294.84961033 C29.60226854 301.60742283 27.34966437 308.36523533 25.0970602 315.12304783 C24.4370602 315.12304783 23.7770602 315.12304783 23.0970602 315.12304783 C23.0970602 316.44304783 23.0970602 317.76304783 23.0970602 319.12304783 C22.4370602 319.12304783 21.7770602 319.12304783 21.0970602 319.12304783 C20.90176723 320.1826572 20.90176723 320.1826572 20.70252895 321.26367283 C17.85923453 334.69136006 12.82707929 348.48649059 7.0189352 360.91211033 C5.88067149 363.64201397 5.05992846 366.41165774 4.2220602 369.24804783 C2.74664833 374.23412354 1.00969752 379.00876417 -0.9654398 383.81054783 C-3.00916734 388.7805647 -4.79542097 393.73329154 -6.25059605 398.90820408 C-6.91155905 401.15231199 -7.69046829 403.31421064 -8.5279398 405.49804783 C-9.51044919 408.08829988 -10.27888723 410.45021891 -10.9029398 413.12304783 C-11.5629398 413.12304783 -12.2229398 413.12304783 -12.9029398 413.12304783 C-13.0473148 414.05117283 -13.1916898 414.97929783 -13.3404398 415.93554783 C-13.9029398 419.12304783 -13.9029398 419.12304783 -14.9029398 422.12304783 C-15.5629398 422.12304783 -16.2229398 422.12304783 -16.9029398 422.12304783 C-17.00993198 423.28320408 -17.11692417 424.44336033 -17.22715855 425.63867283 C-17.77729979 430.0205334 -19.06911161 433.79594367 -20.7154398 437.87304783 C-21.26149084 439.27339662 -21.80574781 440.67444626 -22.3482523 442.07617283 C-22.61412144 442.76002048 -22.87999058 443.44386814 -23.15391636 444.14843845 C-24.21544764 446.94689512 -25.15923977 449.77891751 -26.0904398 452.62304783 C-28.19264041 459.01580543 -30.34526167 465.11722034 -33.4029398 471.12304783 C-36.52684625 477.27733059 -38.7059702 483.14851123 -40.2779398 489.87304783 C-42.33894798 498.44250291 -45.89566681 506.29932439 -49.9029398 514.12304783 C-51.37214799 517.53023882 -52.35436541 520.81636776 -53.1529398 524.43554783 C-55.03732868 532.2562499 -57.97177962 539.64811509 -60.9029398 547.12304783 C-61.5629398 547.12304783 -62.2229398 547.12304783 -62.9029398 547.12304783 C-63.14528355 548.17363377 -63.3876273 549.2242197 -63.6373148 550.30664158 C-66.80404449 563.69305411 -66.80404449 563.69305411 -69.90977573 569.96875095 C-70.86963081 572.05079648 -71.607664 574.09701365 -72.30528355 576.27929783 C-73.88888326 581.12637349 -75.62753513 585.90591037 -77.4029398 590.68554783 C-77.84573277 591.88340916 -77.84573277 591.88340916 -78.29747105 593.1054697 C-78.88205719 594.68539746 -79.46796446 596.2648371 -80.05528355 597.84375095 C-80.61231634 599.34157876 -81.16707422 600.84025493 -81.71934605 602.3398447 C-82.99681245 605.79028788 -84.32620887 609.17377346 -85.9029398 612.49804783 C-88.3522654 617.91576571 -88.3522654 617.91576571 -90.9029398 627.12304783 C-138.0929398 627.12304783 -185.2829398 627.12304783 -233.9029398 627.12304783 C-233.9029398 625.47304783 -233.9029398 623.82304783 -233.9029398 622.12304783 C-233.2429398 622.12304783 -232.5829398 622.12304783 -231.9029398 622.12304783 C-231.79723667 621.47980564 -231.69153355 620.83656345 -231.5826273 620.17382908 C-230.67878483 616.11692697 -229.35981756 612.24445995 -228.0279398 608.31054783 C-227.64315464 607.15715916 -227.64315464 607.15715916 -227.25059605 605.9804697 C-224.89110515 598.95535235 -222.3432933 592.05232741 -219.4029398 585.24804783 C-217.87145424 581.61247381 -216.52165593 578.04792598 -215.4654398 574.24804783 C-214.27968882 570.03355006 -212.66445611 566.13082205 -210.9029398 562.12304783 C-208.76378322 557.25316545 -206.97956528 552.47834413 -205.54747105 547.36132908 C-204.19355513 542.65954836 -202.35785393 538.16555939 -200.4029398 533.68554783 C-198.98826692 530.32569974 -197.84231296 526.97273784 -196.71934605 523.50976658 C-195.8635337 521.00784628 -194.90125878 518.57139667 -193.9029398 516.12304783 C-192.02960621 511.51450476 -190.42528318 506.85736847 -188.9029398 502.12304783 C-186.82820833 495.67086096 -184.44803294 489.40368092 -181.9029398 483.12304783 C-180.01123599 478.39378832 -178.43205972 473.62726974 -176.9654398 468.74804783 C-174.79465516 461.600141 -172.12848515 454.78849841 -169.0279398 447.99804783 C-164.85697603 438.7074305 -161.49159986 429.05036042 -158.3404398 419.37304783 C-156.53584766 413.87306479 -154.48289269 408.56911349 -152.21153355 403.24804783 C-146.72117758 390.13675 -142.31805096 376.62438686 -137.9029398 363.12304783 C-137.2429398 363.12304783 -136.5829398 363.12304783 -135.9029398 363.12304783 C-135.7998148 362.29804783 -135.6966898 361.47304783 -135.5904398 360.62304783 C-134.92877292 357.25456191 -133.91884248 354.39933505 -132.6685648 351.22461033 C-131.46389705 347.91792029 -130.69826301 344.54905553 -129.9029398 341.12304783 C-129.2429398 341.12304783 -128.5829398 341.12304783 -127.9029398 341.12304783 C-127.6966898 339.82367283 -127.4904398 338.52429783 -127.2779398 337.18554783 C-126.25849577 332.06632531 -124.68962806 327.22601534 -122.9654398 322.31054783 C-122.71262241 321.58166355 -122.45980503 320.85277927 -122.19932652 320.10180759 C-121.09379113 317.018151 -120.00064007 314.28484902 -118.3013773 311.47070408 C-116.6991052 308.78085623 -116.11607942 306.42822521 -115.4654398 303.37304783 C-114.38725968 298.7865925 -113.00955193 294.76074307 -111.00059605 290.51367283 C-107.09383834 282.0050048 -104.14741337 273.04000594 -101.03184605 264.22070408 C-100.16069377 261.83031047 -99.24918568 259.50758003 -98.2154398 257.18554783 C-96.85002057 254.20109934 -96.85002057 254.20109934 -96.1295023 251.23242283 C-94.18701552 244.27800968 -91.26536381 237.61239266 -88.62364292 230.9023447 C-86.08016766 224.37876656 -83.77529209 217.87173569 -81.9029398 211.12304783 C-81.2429398 211.12304783 -80.5829398 211.12304783 -79.9029398 211.12304783 C-79.77548374 210.40568455 -79.64802769 209.68832127 -79.51670933 208.9492197 C-78.90771384 206.14503046 -78.07480576 203.59505066 -77.0826273 200.90429783 C-76.53179478 199.39669895 -76.53179478 199.39669895 -75.96983433 197.85864353 C-75.57650913 196.79089695 -75.18318394 195.72315037 -74.7779398 194.62304783 C-71.41633925 185.41667805 -68.19015941 176.18340585 -65.19932652 166.84961033 C-63.7476821 162.3841184 -62.07925794 158.30057806 -59.9029398 154.12304783 C-59.44513581 152.52073388 -58.99001653 150.9174592 -58.56309605 149.30664158 C-56.64972681 142.97780486 -54.07581836 136.79288981 -51.4185648 130.74414158 C-49.75804407 126.77686654 -48.40879526 122.77557806 -47.0904398 118.68554783 C-43.73320892 108.44673406 -40.06086927 98.34149744 -35.9654398 88.37304783 C-32.03026885 78.64989628 -28.68419071 68.64428322 -25.44590855 58.66992283 C-25.22539829 57.99276218 -25.00488804 57.31560154 -24.77769566 56.61792088 C-24.19332671 54.81046477 -23.61810313 53.00005904 -23.0435648 51.18945408 C-21.94005991 48.22283991 -20.53964214 45.81853335 -18.9029398 43.12304783 C-18.06653158 40.77593497 -18.06653158 40.77593497 -17.4654398 38.37304783 C-16.26013695 34.10373828 -14.66971869 30.22240914 -12.80528355 26.20507908 C-11.76558928 23.93004335 -11.76558928 23.93004335 -10.9029398 20.62304783 C-9.86394565 16.98656832 -8.42988074 13.76703857 -6.85215855 10.34179783 C-5.56362794 7.32992381 -4.75840038 4.28167153 -3.9029398 1.12304783 C-2.9029398 0.12304783 -2.9029398 0.12304783 0 0 Z " fill="#FDFDFD" transform="translate(239.90293979644775,44.876952171325684)"/>
<path d="M0 0 C50.49 0 100.98 0 153 0 C151.52705118 7.36474411 149.90962402 15.31273471 145.875 21.75 C143.89239428 25.18651658 143.29218171 27.90936381 142.55859375 31.74609375 C141.81123893 34.76164433 140.46362055 37.25104428 139.00390625 39.9765625 C137.61228573 42.78146301 136.72046256 45.68160969 135.7734375 48.66015625 C134.04502933 53.88902744 131.87531792 58.96198568 129.703125 64.01953125 C127.29673981 69.64622602 125.26743237 75.0085015 124 81 C123.34 81 122.68 81 122 81 C121.87625 81.845625 121.7525 82.69125 121.625 83.5625 C120.35037797 90.57292118 117.93070168 97.09803511 115.4375 103.75 C114.81083875 105.43215791 114.18452182 107.11444414 113.55859375 108.796875 C113.28329834 109.53260742 113.00800293 110.26833984 112.72436523 111.02636719 C112.11978989 112.67361596 111.55488196 114.33535413 111 116 C110.34 116 109.68 116 109 116 C108.9175 116.928125 108.835 117.85625 108.75 118.8125 C108.01757075 124.12534498 105.93313849 129.02778798 104 134 C103.34 134 102.68 134 102 134 C101.86851562 135.17175781 101.86851562 135.17175781 101.734375 136.3671875 C100.76136934 141.18046018 99.0339887 145.56008775 97.25 150.125 C96.91484375 150.99898437 96.5796875 151.87296875 96.234375 152.7734375 C94.42110189 157.47146329 92.52529231 162.12083497 90.54296875 166.75 C87.38856551 174.27427574 84.93746449 182.02199955 82.45043945 189.78564453 C79.79401247 198.05031931 76.80842063 206.00098771 73.31860352 213.93701172 C71.80058967 217.46321088 70.57869806 220.96137523 69.4375 224.625 C64.26952333 240.59571501 64.26952333 240.59571501 60 247 C59.40260055 249.04705225 58.86590017 251.11233108 58.375 253.1875 C57.98441406 254.81751953 57.98441406 254.81751953 57.5859375 256.48046875 C57.39257812 257.31191406 57.19921875 258.14335937 57 259 C56.34 259 55.68 259 55 259 C54.896875 259.86625 54.79375 260.7325 54.6875 261.625 C53.95203426 265.23546816 52.64727029 267.70545941 51 271 C49.16621365 276.05701851 47.49793043 281.15851591 46.09375 286.3515625 C44.84548255 290.51542605 43.25731032 294.4397627 41.5625 298.4375 C38.71218014 305.21084073 36.08274516 312.03398362 33.5625 318.9375 C32.48415892 321.84334545 31.25279684 324.63153341 29.9375 327.4375 C28.20562568 331.22925514 27.25574222 334.84941037 26.58984375 338.95703125 C26 341 26 341 24.53515625 342.88671875 C22.61656412 345.52783413 22.16843861 347.81695898 21.5 351 C20.32884766 356.5769159 20.32884766 356.5769159 18.56616211 358.84472656 C16.7845616 361.29647547 16.00664458 363.47273297 15.09765625 366.359375 C14.76443359 367.39320313 14.43121094 368.42703125 14.08789062 369.4921875 C13.74951172 370.56726563 13.41113281 371.64234375 13.0625 372.75 C11.06269422 379.08464488 9.08387274 385.14740575 5.97094727 391.02441406 C4.0821688 394.86751069 2.80336007 398.94846002 1.4375 403 C0.85371956 404.70862569 0.26909418 406.41696294 -0.31640625 408.125 C-0.59991943 408.95346436 -0.88343262 409.78192871 -1.17553711 410.63549805 C-2.14308143 413.41034753 -3.17305023 416.15761861 -4.21606445 418.90478516 C-5.11463207 421.30637571 -5.97471427 423.72009974 -6.83203125 426.13671875 C-10.13307401 435.40566881 -13.52278069 444.42204708 -17.8125 453.28125 C-19.49620264 457.13604288 -20.29865543 460.86206705 -21 465 C-21.66 465 -22.32 465 -23 465 C-23.17015625 465.67804688 -23.3403125 466.35609375 -23.515625 467.0546875 C-24.74290968 471.76798291 -26.04622707 476.31979238 -27.9375 480.8125 C-30.54023723 487.03294149 -32.23985333 493.50243729 -34 500 C-34.66 500 -35.32 500 -36 500 C-36.07476563 500.54785156 -36.14953125 501.09570312 -36.2265625 501.66015625 C-37.83301177 511.34610035 -41.63093791 520.63919842 -46.1875 529.3125 C-48.07329275 532.9126498 -49.18271275 536.59803531 -50.2890625 540.5 C-52.45862384 548.12922668 -55.26092546 555.56139654 -58 563 C-58.66 563 -59.32 563 -60 563 C-60.21914063 563.969375 -60.43828125 564.93875 -60.6640625 565.9375 C-62.4114402 573.41416991 -64.43150964 580.67913133 -67.125 587.875 C-67.37846191 588.55820312 -67.63192383 589.24140625 -67.89306641 589.9453125 C-68.98841688 592.79105472 -69.82011414 594.82011414 -72 597 C-72.54312436 598.68908833 -73.0128261 600.40231153 -73.4375 602.125 C-75.747819 610.97547577 -79.166884 618.56714479 -83 627 C-133.82 627 -184.64 627 -237 627 C-235.88461538 619.19230769 -235.88461538 619.19230769 -233.625 615.125 C-231.58808301 611.26067748 -230.09469851 607.53133911 -228.796875 603.37109375 C-227.91296338 600.74102338 -226.85029993 598.23462288 -225.75 595.6875 C-222.36077899 587.70081606 -219.62386034 579.48772962 -216.79589844 571.29052734 C-215.24990874 566.84130178 -213.63157701 562.41843216 -212 558 C-211.34 558 -210.68 558 -210 558 C-209.91363281 557.41734375 -209.82726562 556.8346875 -209.73828125 556.234375 C-208.69381044 550.14003158 -206.83063516 544.86576223 -204.359375 539.2109375 C-202.47050048 534.74928562 -200.89445699 530.19369248 -199.30859375 525.6171875 C-197.06681251 519.42050263 -194.55569288 513.33376099 -192.03515625 507.24609375 C-188.42905924 498.48971587 -185.10903027 489.79368066 -182.63500977 480.64428711 C-181.42861848 476.21306563 -179.88436376 472.17367676 -178 468 C-177.34 468 -176.68 468 -176 468 C-175.92523438 467.36835937 -175.85046875 466.73671875 -175.7734375 466.0859375 C-174.54446164 457.72408213 -171.48128554 450.65364513 -168 443 C-164.70676348 435.45838888 -161.80851815 427.83143949 -159.14257812 420.04956055 C-157.99186338 416.70972923 -156.7890895 413.43137369 -155.37890625 410.19140625 C-153.92867498 406.83492199 -152.99652403 403.51714363 -152 400 C-150.70933815 396.31737796 -149.36217369 392.65670899 -148 389 C-147.34 389 -146.68 389 -146 389 C-145.62875 387.081875 -145.62875 387.081875 -145.25 385.125 C-144.26268052 380.63974865 -142.71447768 376.57814606 -140.94140625 372.3515625 C-139.87365469 369.80310619 -139.87365469 369.80310619 -138.9375 366.25 C-138 363 -138 363 -136.5625 360.1875 C-135.20318897 357.4145055 -134.34253188 354.95106717 -133.5 352 C-132.3721734 348.05260689 -130.83754703 344.67509405 -129 341 C-127.90581659 337.69246842 -126.93507392 334.35565535 -126 331 C-125.34 331 -124.68 331 -124 331 C-123.89042969 330.38253906 -123.78085937 329.76507813 -123.66796875 329.12890625 C-122.5622734 323.22287499 -121.04638565 317.64802441 -119 312 C-118.34 312 -117.68 312 -117 312 C-116.79375 310.845 -116.5875 309.69 -116.375 308.5 C-115.07840161 302.69231971 -112.92722816 297.24441131 -110.796875 291.70703125 C-108.66559866 286.16498783 -106.64724083 280.58255569 -104.625 275 C-104.08818604 273.52043823 -104.08818604 273.52043823 -103.54052734 272.01098633 C-102.69294882 269.67425656 -101.84609581 267.33726696 -101 265 C-100.34 265 -99.68 265 -99 265 C-98.89042969 264.26394531 -98.78085937 263.52789062 -98.66796875 262.76953125 C-98.50941406 261.79371094 -98.35085938 260.81789063 -98.1875 259.8125 C-98.03667969 258.84957031 -97.88585937 257.88664062 -97.73046875 256.89453125 C-96.94441883 253.7797559 -95.69156559 251.71328816 -94 249 C-93.24149314 247.08158667 -92.53839909 245.14084176 -91.875 243.1875 C-89.44664106 236.21432248 -86.90068928 229.29046376 -84.3125 222.375 C-83.91981934 221.31949951 -83.52713867 220.26399902 -83.12255859 219.17651367 C-82.74824707 218.17724854 -82.37393555 217.1779834 -81.98828125 216.1484375 C-81.48615112 214.80531494 -81.48615112 214.80531494 -80.97387695 213.43505859 C-80 211 -80 211 -78.93041992 208.90087891 C-77.74252896 206.47397808 -77.24913884 203.96142454 -76.62890625 201.34375 C-75.09045719 195.61039948 -72.89783737 190.05457493 -70.5234375 184.62109375 C-68.99888064 180.99733936 -67.75935468 177.36860447 -66.5625 173.625 C-64.94427838 168.65453019 -63.17817079 163.84323305 -60.96484375 159.10546875 C-59.89269034 156.76583035 -58.94247731 154.39469915 -58 152 C-56.72671884 148.76936115 -55.3818092 145.59521023 -53.9375 142.4375 C-52.29258287 138.78924023 -50.99637758 135.11334453 -49.77734375 131.3046875 C-48.96227307 128.88814628 -48.03098125 126.54652438 -47.0625 124.1875 C-45.5219352 120.41840826 -44.19201751 116.62368193 -42.9375 112.75 C-41.5875078 108.61037547 -39.98296337 104.87971094 -38 101 C-36.91246957 98.02779642 -35.95867538 95.01583297 -35 92 C-33.13152126 86.27778387 -31.14732902 80.62395695 -29 75 C-28.34 75 -27.68 75 -27 75 C-26.89945313 74.18917969 -26.79890625 73.37835938 -26.6953125 72.54296875 C-25.85399234 68.25601713 -24.42838078 64.38535281 -22.875 60.3125 C-22.23811831 58.61464445 -21.60140431 56.91672598 -20.96484375 55.21875 C-20.6385498 54.35378906 -20.31225586 53.48882812 -19.97607422 52.59765625 C-18.73768938 49.30190471 -17.52300505 45.99774273 -16.31054688 42.69238281 C-14.87993941 38.79261727 -13.4397211 34.89640806 -12 31 C-11.73300293 30.27619141 -11.46600586 29.55238281 -11.19091797 28.80664062 C-8.27792251 20.9208102 -5.27751048 13.09124627 -1.98046875 5.35546875 C-1.24904721 3.59830864 -0.60187948 1.80563845 0 0 Z " fill="#FDFDFD" transform="translate(656,45)"/>
<path d="M0 0 C0.66 0 1.32 0 2 0 C1.58041016 1.24136719 1.58041016 1.24136719 1.15234375 2.5078125 C-0.31449932 6.95309286 -1.68947389 11.42562744 -3.05664062 15.90234375 C-5.16671855 22.72558639 -7.68319847 29.32224187 -10.49853516 35.88354492 C-13.5725892 43.08744928 -16.10338577 50.27903915 -18.22387695 57.81616211 C-20.57286605 66.1484436 -23.25613974 74.40048804 -26.9375 82.25 C-29.34803704 87.4516852 -31.00930851 92.90454504 -32.78662109 98.34570312 C-34.36476577 103.15699809 -36.0744021 107.86311331 -38.01171875 112.54296875 C-39.93611708 117.32734247 -41.60809161 122.2063615 -43.3203125 127.06982422 C-44.01345469 129.03820862 -44.70954908 131.00552886 -45.40625 132.97265625 C-45.89593738 134.35673403 -46.38551868 135.74084934 -46.875 137.125 C-47.12290283 137.82592773 -47.37080566 138.52685547 -47.6262207 139.24902344 C-49.01942165 143.19620478 -50.39829797 147.14789581 -51.76171875 151.10546875 C-54.57855344 159.26091226 -57.47275158 167.29380091 -60.88671875 175.22265625 C-62.51797228 179.29220452 -63.72944954 183.46378605 -64.9765625 187.6640625 C-66.38228942 192.24608841 -68.00785779 196.73695946 -69.640625 201.2421875 C-71.41171623 206.13813508 -73.13525479 211.05036356 -74.85693359 215.96386719 C-77.17263131 222.54799334 -79.62890321 229.0690215 -82.1875 235.5625 C-85.01369845 242.86779479 -87.5465953 250.27073411 -90.05737305 257.68969727 C-91.55296636 262.05996657 -93.09575632 266.33121577 -95.03125 270.52734375 C-97.3002148 275.48534966 -98.85877256 280.60129431 -100.4375 285.8125 C-102.62353411 292.87430225 -104.90497181 299.72531318 -107.95703125 306.46484375 C-109.23948321 309.58211461 -110.09246456 312.75476628 -111 316 C-113.90748036 324.6803037 -117.22604922 333.18105783 -120.65625 341.6640625 C-122.17024693 345.42264789 -123.60508267 349.19568001 -125 353 C-125.31710937 353.85980469 -125.63421875 354.71960938 -125.9609375 355.60546875 C-128.07687165 361.37258251 -130.08369608 367.16398353 -132 373 C-132.62418579 374.87527121 -133.24924915 376.75025045 -133.875 378.625 C-134.20757813 379.62273437 -134.54015625 380.62046875 -134.8828125 381.6484375 C-136.921875 387.765625 -138.9609375 393.8828125 -141 400 C-141.66 400 -142.32 400 -143 400 C-143.12761719 400.85980469 -143.25523438 401.71960938 -143.38671875 402.60546875 C-144.82664096 410.57548404 -147.50091295 418.17566858 -150.9296875 425.4921875 C-153.08454237 430.54115402 -154.67172755 435.8140613 -156.36157227 441.03295898 C-158.5860212 447.88664353 -160.93626549 454.67976662 -163.4375 461.4375 C-163.74606934 462.27514893 -164.05463867 463.11279785 -164.37255859 463.97583008 C-165.8900055 468.07676827 -167.44296581 472.15061794 -169.125 476.1875 C-171.21292712 481.24532345 -172.73670599 486.47982161 -174.25048828 491.7331543 C-174.7779158 493.50631334 -175.38298607 495.25599123 -176 497 C-176.66 497.33 -177.32 497.66 -178 498 C-178.66 498.99 -179.32 499.98 -180 501 C-182.73021644 468.12466486 -184.46090516 435.15807596 -185.7890625 402.19921875 C-185.82162455 401.3912554 -185.85418659 400.58329205 -185.88773537 399.75084496 C-186.21041519 391.71257802 -186.52461067 383.67402633 -186.82447338 375.6348753 C-187.4808917 358.07550027 -188.3486253 340.55710816 -189.53393555 323.02490234 C-191.0331831 300.7907925 -192.12527086 278.46122378 -192.35247803 256.17504883 C-192.37429188 254.24999116 -192.41365874 252.32515723 -192.45361328 250.40039062 C-192.47498882 240.23703629 -189.6382515 235.51524393 -182.9375 227.9375 C-179.04732947 223.44034787 -175.2743602 218.88229848 -171.625 214.1875 C-167.03353543 208.28928503 -162.34811848 202.47401416 -157.62548828 196.68041992 C-154.73394443 193.13303978 -151.85240728 189.5790205 -149 186 C-146.14777448 182.42120755 -143.26647524 178.86737282 -140.375 175.3203125 C-135.70005942 169.58485299 -131.05452912 163.83167198 -126.5 158 C-120.90733232 150.83908335 -115.16869381 143.80019203 -109.42919922 136.75683594 C-104.97403083 131.28034265 -100.58646499 125.75311667 -96.24267578 120.18798828 C-91.00193386 113.48036251 -85.63482858 106.88969363 -80.20605469 100.33349609 C-75.52903367 94.67298934 -70.97047843 88.92885157 -66.453125 83.140625 C-60.91396567 76.04908981 -55.2462498 69.06523857 -49.54296875 62.10546875 C-42.00104329 52.89895199 -34.49006525 43.67377706 -27.16674805 34.29199219 C-23.11255244 29.11118319 -18.95811999 24.01497943 -14.78979492 18.92578125 C-10.75504188 13.98155766 -6.8478385 8.95202603 -3.07006836 3.80834961 C-2.09229348 2.50346762 -1.05181918 1.24596835 0 0 Z " fill="#030303" transform="translate(1192,117)"/>
<path d="M0 0 C154.44 0 308.88 0 468 0 C467.67 1.32 467.34 2.64 467 4 C466.67 3.34 466.34 2.68 466 2 C234.835 2.495 234.835 2.495 -1 3 C-0.67 2.01 -0.34 1.02 0 0 Z " fill="#C0C0C0" transform="translate(1072,45)"/>
<path d="M0 0 C51.48 0 102.96 0 156 0 C155.67 1.65 155.34 3.3 155 5 C154.67 4.01 154.34 3.02 154 2 C134.23340467 2.08382034 114.46689451 2.17892411 94.70041943 2.28752708 C85.52287151 2.3376871 76.34533268 2.38412959 67.16772461 2.421875 C59.17019237 2.4547764 51.17272993 2.49459728 43.17527467 2.54279006 C38.93917623 2.56807353 34.70312421 2.5898493 30.46697044 2.60334396 C26.48201228 2.61614762 22.49721317 2.6381835 18.51234245 2.66738319 C17.04780544 2.67647228 15.58324281 2.6821523 14.11867905 2.68421364 C12.12284048 2.68752662 10.12703714 2.70416281 8.13127136 2.7215271 C6.45406903 2.72982324 6.45406903 2.72982324 4.74298382 2.73828697 C1.78390237 2.80233556 1.78390237 2.80233556 -1 5 C-0.67 3.35 -0.34 1.7 0 0 Z " fill="#C1C1C1" transform="translate(838,45)"/>
<path d="M0 0 C50.49 0 100.98 0 153 0 C152.67 1.65 152.34 3.3 152 5 C151.67 4.01 151.34 3.02 151 2 C131.62455473 2.08382191 112.24919633 2.17892626 92.87387371 2.28752708 C83.87792861 2.3376862 74.88199278 2.3841287 65.88598633 2.421875 C58.04666624 2.45477734 50.20741737 2.49459874 42.3681758 2.54279006 C38.21591446 2.5680726 34.06370045 2.58984864 29.91138268 2.60334396 C26.00521736 2.61614847 22.09921426 2.63818526 18.19313812 2.66738319 C16.75762749 2.67647162 15.32209073 2.68215214 13.88655281 2.68421364 C11.93012506 2.68752709 9.97373327 2.70416413 8.01737976 2.7215271 C6.9213679 2.72705786 5.82535604 2.73258862 4.69613171 2.73828697 C1.77752961 2.80762978 1.77752961 2.80762978 -1 5 C-0.67 3.35 -0.34 1.7 0 0 Z " fill="#C0C0C0" transform="translate(656,45)"/>
<path d="M0 0 C0.33 0 0.66 0 1 0 C1.20180023 11.10648691 0.63655734 21.95479845 -0.5 33 C-0.64524333 34.46867975 -0.78977721 35.93742984 -0.93359375 37.40625 C-1.28094271 40.93834332 -1.63769014 44.46940601 -2 48 C-2.33 48 -2.66 48 -3 48 C-3.02894547 44.54168414 -3.04678 41.08339928 -3.0625 37.625 C-3.07087891 36.64015625 -3.07925781 35.6553125 -3.08789062 34.640625 C-3.09111328 33.69960938 -3.09433594 32.75859375 -3.09765625 31.7890625 C-3.10289307 30.91975098 -3.10812988 30.05043945 -3.11352539 29.15478516 C-3 27 -3 27 -2 25 C-1.77811206 23.11659623 -1.60810213 21.22694809 -1.46484375 19.3359375 C-1.37783203 18.21445312 -1.29082031 17.09296875 -1.20117188 15.9375 C-1.11416016 14.761875 -1.02714844 13.58625 -0.9375 12.375 C-0.84662109 11.19164062 -0.75574219 10.00828125 -0.66210938 8.7890625 C-0.43767767 5.85963815 -0.21714035 2.92997237 0 0 Z " fill="#666666" transform="translate(265,460)"/>
<path d="M0 0 C0.66 0 1.32 0 2 0 C1.731875 0.763125 1.46375 1.52625 1.1875 2.3125 C-0.3750871 7.16474415 -1.68566885 12.07563928 -3 17 C-3.68707555 14.50935112 -4 12.62113708 -4 10 C-7.50886032 11.40354413 -8.4267148 12.64365823 -10 16 C-10.99 16.66 -11.98 17.32 -13 18 C-11.01557657 13.79403525 -8.36282291 10.38955781 -5.5 6.75 C-4.75169922 5.77546875 -4.75169922 5.77546875 -3.98828125 4.78125 C-2.70815807 3.14763436 -1.35894401 1.56865759 0 0 Z " fill="#4A4A4A" transform="translate(1192,117)"/>
<path d="M0 0 C0.33 0.66 0.66 1.32 1 2 C0.26821134 4.07196631 -0.55899003 6.1108552 -1.4375 8.125 C-1.91058594 9.22070312 -2.38367188 10.31640625 -2.87109375 11.4453125 C-3.24363281 12.28835938 -3.61617188 13.13140625 -4 14 C-4.33 14 -4.66 14 -5 14 C-5.78774617 5.96498906 -5.78774617 5.96498906 -2.5 1.9375 C-1.2625 0.9784375 -1.2625 0.9784375 0 0 Z " fill="#4B4B4B" transform="translate(399,306)"/>
<path d="M0 0 C0.33 0.66 0.66 1.32 1 2 C0.32694626 3.88455048 -0.35622186 5.76628891 -1.09765625 7.625 C-2.63630454 11.67477558 -3.79809092 15.8402012 -5 20 C-6.30597864 16.32914112 -5.69989738 13.72508777 -4.75 10 C-4.49734375 8.96875 -4.2446875 7.9375 -3.984375 6.875 C-3.01920265 4.05608394 -1.92378106 2.24801383 0 0 Z " fill="#A6A6A6" transform="translate(1477,214)"/>
<path d="M0 0 C0.33 0 0.66 0 1 0 C1 5.61 1 11.22 1 17 C0.67 17 0.34 17 0 17 C-0.06058594 16.31292969 -0.12117188 15.62585938 -0.18359375 14.91796875 C-0.26738281 14.01691406 -0.35117187 13.11585938 -0.4375 12.1875 C-0.51871094 11.29417969 -0.59992188 10.40085937 -0.68359375 9.48046875 C-0.93489767 6.87256441 -0.93489767 6.87256441 -2 4 C-1.0625 1.8125 -1.0625 1.8125 0 0 Z " fill="#282828" transform="translate(273,335)"/>
<path d="M0 0 C0.8125 1.6875 0.8125 1.6875 1 4 C-1.53816609 7.03169839 -3.22508911 8.74169637 -7 10 C-5.33248852 6.05860922 -2.77289351 3.2107188 0 0 Z " fill="#404040" transform="translate(1043,303)"/>
<path d="M0 0 C0.33 0.66 0.66 1.32 1 2 C2.32 1.34 3.64 0.68 5 0 C4.67 0.99 4.34 1.98 4 3 C3.34 3 2.68 3 2 3 C1.71125 3.804375 1.4225 4.60875 1.125 5.4375 C0 8 0 8 -2 9 C-1.51421457 5.87709365 -1.0013988 3.00419641 0 0 Z " fill="#4D4D4D" transform="translate(911,256)"/>
<path d="M0 0 C0.66 0 1.32 0 2 0 C1.54636829 1.58468677 1.08688548 3.16769924 0.625 4.75 C0.36976563 5.63171875 0.11453125 6.5134375 -0.1484375 7.421875 C-0.9209934 9.76080572 -1.83625676 11.83442562 -3 14 C-4 12 -4 12 -3.4765625 9.94140625 C-3.19554687 9.15636719 -2.91453125 8.37132812 -2.625 7.5625 C-2.34914063 6.78003906 -2.07328125 5.99757813 -1.7890625 5.19140625 C-1.52867187 4.46824219 -1.26828125 3.74507812 -1 3 C-0.67 2.01 -0.34 1.02 0 0 Z " fill="#4D4D4D" transform="translate(654,46)"/>
<path d="M0 0 C1 2 1 2 0.22265625 4.6015625 C-0.16019531 5.59929688 -0.54304688 6.59703125 -0.9375 7.625 C-1.50791016 9.12933594 -1.50791016 9.12933594 -2.08984375 10.6640625 C-2.39019531 11.43492187 -2.69054687 12.20578125 -3 13 C-3.33 13 -3.66 13 -4 13 C-4.5497272 7.36529617 -2.95047835 4.61012242 0 0 Z " fill="#A8A8A8" transform="translate(450,560)"/>
<path d="M0 0 C1 2 1 2 0.22265625 4.6015625 C-0.16019531 5.59929687 -0.54304688 6.59703125 -0.9375 7.625 C-1.50791016 9.12933594 -1.50791016 9.12933594 -2.08984375 10.6640625 C-2.39019531 11.43492187 -2.69054687 12.20578125 -3 13 C-3.33 13 -3.66 13 -4 13 C-4.5497272 7.36529617 -2.95047835 4.61012242 0 0 Z " fill="#B0B0B0" transform="translate(506,408)"/>
<path d="M0 0 C1 2 1 2 0.44140625 4.1640625 C0.15136719 4.97617188 -0.13867188 5.78828125 -0.4375 6.625 C-0.72496094 7.44226563 -1.01242187 8.25953125 -1.30859375 9.1015625 C-1.53675781 9.72804687 -1.76492188 10.35453125 -2 11 C-2.33 11 -2.66 11 -3 11 C-3.36923077 4.6 -3.36923077 4.6 -1.5 1.5625 C-1.005 1.046875 -0.51 0.53125 0 0 Z " fill="#757575" transform="translate(453,162)"/>
<path d="M0 0 C1 2 1 2 0.22265625 4.3828125 C-0.16019531 5.28773438 -0.54304687 6.19265625 -0.9375 7.125 C-1.31777344 8.03507813 -1.69804688 8.94515625 -2.08984375 9.8828125 C-2.39019531 10.58148437 -2.69054687 11.28015625 -3 12 C-3.33 12 -3.66 12 -4 12 C-4.61528766 6.92387682 -2.61658349 4.17017994 0 0 Z " fill="#999999" transform="translate(578,656)"/>
<path d="M0 0 C1.60031344 3.20062687 0.03173691 5.72271806 -1 9 C-1.66 9 -2.32 9 -3 9 C-3.36923077 3.46153846 -3.36923077 3.46153846 -1.5 1.125 C-1.005 0.75375 -0.51 0.3825 0 0 Z " fill="#666666" transform="translate(737,308)"/>
<path d="M0 0 C0.33 0.66 0.66 1.32 1 2 C0.22265625 4.1640625 0.22265625 4.1640625 -0.9375 6.625 C-1.31777344 7.44226563 -1.69804688 8.25953125 -2.08984375 9.1015625 C-2.39019531 9.72804688 -2.69054687 10.35453125 -3 11 C-3.33 11 -3.66 11 -4 11 C-4 9.02 -4 7.04 -4 5 C-3.01 4.67 -2.02 4.34 -1 4 C-0.26676204 1.98491642 -0.26676204 1.98491642 0 0 Z " fill="#585858" transform="translate(578,250)"/>
</svg>
