<svg width="48" height="48" viewBox="0 0 48 48" fill="none" xmlns="http://www.w3.org/2000/svg">
<rect width="48" height="48" rx="24" fill="black"/>
<path d="M34.3125 24.1562C34.3125 24.4795 34.1841 24.7895 33.9555 25.018C33.727 25.2466 33.417 25.375 33.0938 25.375H25.375V33.0938C25.375 33.417 25.2466 33.727 25.018 33.9555C24.7895 34.1841 24.4795 34.3125 24.1562 34.3125C23.833 34.3125 23.523 34.1841 23.2945 33.9555C23.0659 33.727 22.9375 33.417 22.9375 33.0938V25.375H15.2188C14.8955 25.375 14.5855 25.2466 14.357 25.018C14.1284 24.7895 14 24.4795 14 24.1562C14 23.833 14.1284 23.523 14.357 23.2945C14.5855 23.0659 14.8955 22.9375 15.2188 22.9375H22.9375V15.2188C22.9375 14.8955 23.0659 14.5855 23.2945 14.357C23.523 14.1284 23.833 14 24.1562 14C24.4795 14 24.7895 14.1284 25.018 14.357C25.2466 14.5855 25.375 14.8955 25.375 15.2188V22.9375H33.0938C33.417 22.9375 33.727 23.0659 33.9555 23.2945C34.1841 23.523 34.3125 23.833 34.3125 24.1562Z" fill="white"/>
<path d="M34.3125 24.1562C34.3125 24.4795 34.1841 24.7895 33.9555 25.018C33.727 25.2466 33.417 25.375 33.0938 25.375H25.375V33.0938C25.375 33.417 25.2466 33.727 25.018 33.9555C24.7895 34.1841 24.4795 34.3125 24.1562 34.3125C23.833 34.3125 23.523 34.1841 23.2945 33.9555C23.0659 33.727 22.9375 33.417 22.9375 33.0938V25.375H15.2188C14.8955 25.375 14.5855 25.2466 14.357 25.018C14.1284 24.7895 14 24.4795 14 24.1562C14 23.833 14.1284 23.523 14.357 23.2945C14.5855 23.0659 14.8955 22.9375 15.2188 22.9375H22.9375V15.2188C22.9375 14.8955 23.0659 14.5855 23.2945 14.357C23.523 14.1284 23.833 14 24.1562 14C24.4795 14 24.7895 14.1284 25.018 14.357C25.2466 14.5855 25.375 14.8955 25.375 15.2188V22.9375H33.0938C33.417 22.9375 33.727 23.0659 33.9555 23.2945C34.1841 23.523 34.3125 23.833 34.3125 24.1562Z" fill="white"/>
</svg>
