<?xml version="1.0" encoding="UTF-8"?>
<svg version="1.1" xmlns="http://www.w3.org/2000/svg" width="1152" height="153">
<path d="M0 0 C380.16 0 760.32 0 1152 0 C1152 50.49 1152 100.98 1152 153 C771.84 153 391.68 153 0 153 C0 102.51 0 52.02 0 0 Z " fill="#020202" transform="translate(0,0)"/>
<path d="M0 0 C7.98960079 -0.09332867 15.97896786 -0.16407939 23.96898174 -0.20724869 C27.68044696 -0.22798433 31.39153498 -0.25603909 35.1027832 -0.30175781 C38.69493544 -0.3457245 42.28672854 -0.36924205 45.87912941 -0.37950897 C47.89347318 -0.39032566 49.90767563 -0.4214672 51.92179871 -0.45318604 C64.5546888 -0.45621438 76.82628686 2.09919986 86.15625 11.07421875 C92.60576032 17.9560332 95.52672263 24.07633917 95.375 33.5 C95.38660156 34.22058594 95.39820312 34.94117188 95.41015625 35.68359375 C95.35737828 45.41233269 90.34467101 52.0398012 84 59 C78.49051584 64.35355536 69.99490057 67.91852677 62.32080078 68.04370117 C61.55493652 68.02927979 60.78907227 68.0148584 60 68 C62.01988849 70.95897943 64.04109223 73.91705829 66.0625 76.875 C66.90458008 78.10863281 66.90458008 78.10863281 67.76367188 79.3671875 C71.80150246 85.27395681 75.8903757 91.14303245 80 97 C82.75352513 100.93504628 85.50251156 104.87323719 88.25 108.8125 C89.30960938 110.3274707 89.30960938 110.3274707 90.390625 111.87304688 C91.07125 112.84951172 91.751875 113.82597656 92.453125 114.83203125 C93.06317383 115.70577393 93.67322266 116.5795166 94.30175781 117.47973633 C96 120 96 120 97.56665039 122.77880859 C98.80937579 125.24042706 98.80937579 125.24042706 101.48046875 125.70703125 C102.37378906 125.74183594 103.26710938 125.77664062 104.1875 125.8125 C105.08855469 125.86019531 105.98960938 125.90789062 106.91796875 125.95703125 C107.60503906 125.97121094 108.29210937 125.98539062 109 126 C109 127.98 109 129.96 109 132 C81.82466899 134.3412519 81.82466899 134.3412519 74.63037109 130.85009766 C71.0242674 127.71904954 69.14311021 123.64246382 67.18310547 119.35791016 C64.9428715 114.89315992 61.8623435 110.97188612 58.9375 106.9375 C57.74139286 105.22893686 56.54861987 103.51803421 55.359375 101.8046875 C52.49764154 97.70286954 49.60368703 93.62571674 46.6875 89.5625 C43.40016622 84.96995096 40.11973878 80.37277349 36.875 75.75 C36.12992188 74.69296875 35.38484375 73.6359375 34.6171875 72.546875 C33 70 33 70 33 68 C32.34 68 31.68 68 31 68 C31 87.14 31 106.28 31 126 C34.3 126 37.6 126 41 126 C41 127.98 41 129.96 41 132 C27.14 132 13.28 132 -1 132 C-1 130.68 -1 129.36 -1 128 C2.63 128 6.26 128 10 128 C10 87.74 10 47.48 10 6 C6.7 6 3.4 6 0 6 C0 4.02 0 2.04 0 0 Z " fill="#FAFAFA" transform="translate(4,9)"/>
<path d="M0 0 C6.10145441 -0.07455252 12.20263946 -0.12879183 18.30444336 -0.16479492 C20.37708154 -0.17981521 22.44968829 -0.20023747 24.5222168 -0.22631836 C27.51358836 -0.26300024 30.5045371 -0.27979435 33.49609375 -0.29296875 C34.87008583 -0.31619453 34.87008583 -0.31619453 36.27183533 -0.33988953 C45.07360303 -0.34215531 52.74968034 1.98054793 60 7 C64.71249434 12.3351296 66.15853269 16.65518266 66.25 23.8125 C66.27578125 25.01519531 66.3015625 26.21789062 66.328125 27.45703125 C65.72122948 34.01005789 62.49395721 38.06485459 57.89453125 42.4609375 C53.56323998 45.9795535 48.21101167 47.26786849 43 49 C43.43231934 49.61818604 43.86463867 50.23637207 44.31005859 50.87329102 C45.60154549 52.72133501 46.89197996 54.57011471 48.18164062 56.41943359 C49.64888436 58.5219821 51.11895814 60.62255841 52.59179688 62.72119141 C55.83748259 67.3641262 59.0530762 71.99728979 62.0078125 76.83203125 C62.43787598 77.52546631 62.86793945 78.21890137 63.31103516 78.93334961 C64.08064465 80.19016775 64.82935742 81.46012523 65.55224609 82.74438477 C67.05117497 85.16986673 68.2669522 86.78822291 71.05859375 87.59472656 C73.52284927 87.9507535 73.52284927 87.9507535 77 88 C77 89.65 77 91.3 77 93 C69.08 93 61.16 93 53 93 C51.02 89.535 51.02 89.535 49 86 C47.8227482 84.29067151 46.61481006 82.60201095 45.375 80.9375 C42.22484539 76.66312664 39.09350991 72.37795231 36 68.0625 C35.236875 67.00160156 34.47375 65.94070312 33.6875 64.84765625 C30.03899147 59.62413749 26.53430497 54.30145745 23 49 C22.67 61.87 22.34 74.74 22 88 C24.31 88 26.62 88 29 88 C29 89.65 29 91.3 29 93 C19.1 93 9.2 93 -1 93 C-1 92.01 -1 91.02 -1 90 C1.64 90 4.28 90 7 90 C7 61.62 7 33.24 7 4 C4.69 4 2.38 4 0 4 C0 2.68 0 1.36 0 0 Z " fill="#F4F4F4" transform="translate(871,47)"/>
<path d="M0 0 C13.53 0 27.06 0 41 0 C41 1.98 41 3.96 41 6 C37.7 6 34.4 6 31 6 C31 45.27 31 84.54 31 125 C50.96144919 125.50146662 50.96144919 125.50146662 69 119 C69.70241526 117.68514829 70.36275979 116.34764503 71 115 C71.60328125 113.89398438 71.60328125 113.89398438 72.21875 112.765625 C76.32060174 104.71198927 77.22579528 96.84934005 78 88 C78.20699393 85.99986093 78.41508825 83.99983495 78.625 82 C78.74875 80.68 78.8725 79.36 79 78 C82.3 78 85.6 78 89 78 C89 95.49 89 112.98 89 131 C59.63 131 30.26 131 0 131 C0 129.02 0 127.04 0 125 C3.3 125 6.6 125 10 125 C10 85.73 10 46.46 10 6 C6.7 6 3.4 6 0 6 C0 4.02 0 2.04 0 0 Z " fill="#F7F7F7" transform="translate(569,10)"/>
<path d="M0 0 C6.10145441 -0.07455252 12.20263946 -0.12879183 18.30444336 -0.16479492 C20.37708154 -0.17981521 22.44968829 -0.20023747 24.5222168 -0.22631836 C27.51358836 -0.26300024 30.5045371 -0.27979435 33.49609375 -0.29296875 C34.87008583 -0.31619453 34.87008583 -0.31619453 36.27183533 -0.33988953 C44.8582902 -0.34209988 52.18579011 1.57960577 59 7 C63.05973106 11.08228512 65.73315682 15.08434589 66.265625 20.90234375 C66.21354167 31.01953125 66.21354167 31.01953125 64 36 C63.34 36 62.68 36 62 36 C61.773125 36.5775 61.54625 37.155 61.3125 37.75 C58.07431055 43.30118192 51.95069468 46.14658461 46 48 C41.79125604 48.45496209 37.66398627 48.38143253 33.4375 48.25 C29.663125 48.1675 25.88875 48.085 22 48 C22 61.2 22 74.4 22 88 C24.31 88 26.62 88 29 88 C29 89.65 29 91.3 29 93 C19.1 93 9.2 93 -1 93 C-1 92.01 -1 91.02 -1 90 C1.31 90 3.62 90 6 90 C6 61.62 6 33.24 6 4 C4.02 4 2.04 4 0 4 C0 2.68 0 1.36 0 0 Z " fill="#F3F3F3" transform="translate(319,47)"/>
<path d="M0 0 C10.23 0 20.46 0 31 0 C31 1.65 31 3.3 31 5 C28.69 5 26.38 5 24 5 C24 17.21 24 29.42 24 42 C35.55 42 47.1 42 59 42 C59 29.46 59 16.92 59 4 C56.69 4 54.38 4 52 4 C52 2.68 52 1.36 52 0 C61.9 0 71.8 0 82 0 C82 1.32 82 2.64 82 4 C79.36 4 76.72 4 74 4 C74 32.38 74 60.76 74 90 C76.64 90 79.28 90 82 90 C82 91.32 82 92.64 82 94 C72.1 94 62.2 94 52 94 C52 92.68 52 91.36 52 90 C54.31 90 56.62 90 59 90 C59 75.48 59 60.96 59 46 C47.45 46 35.9 46 24 46 C24 60.52 24 75.04 24 90 C26.31 90 28.62 90 31 90 C31 91.32 31 92.64 31 94 C21.1 94 11.2 94 1 94 C1 92.68 1 91.36 1 90 C3.31 90 5.62 90 8 90 C8 61.95 8 33.9 8 5 C5.36 5 2.72 5 0 5 C0 3.35 0 1.7 0 0 Z " fill="#F7F7F7" transform="translate(404,47)"/>
<path d="M0 0 C22.11 0 44.22 0 67 0 C67 10.23 67 20.46 67 31 C65.35 31 63.7 31 62 31 C61.69707031 29.84242187 61.39414063 28.68484375 61.08203125 27.4921875 C60.65966631 25.95290193 60.23644348 24.41385157 59.8125 22.875 C59.61591797 22.11445312 59.41933594 21.35390625 59.21679688 20.5703125 C57.46518144 14.31839278 55.12455741 10.21193261 49.69384766 6.36743164 C46.66340769 4.82914142 44.64200861 4.57866333 41.26171875 4.48828125 C40.29967529 4.45516846 39.33763184 4.42205566 38.34643555 4.38793945 C37.13898682 4.36304443 35.93153809 4.33814941 34.6875 4.3125 C30.830625 4.209375 26.97375 4.10625 23 4 C23 17.2 23 30.4 23 44 C31.6187275 43.00293775 31.6187275 43.00293775 40 41 C42.0003877 36.44356134 42.49311454 31.8998928 43 27 C44.65 27 46.3 27 48 27 C48 40.2 48 53.4 48 67 C46.68 67 45.36 67 44 67 C43.84144531 66.16855469 43.68289063 65.33710937 43.51953125 64.48046875 C43.28621094 63.39378906 43.05289063 62.30710938 42.8125 61.1875 C42.59207031 60.10855469 42.37164063 59.02960938 42.14453125 57.91796875 C41.09309194 54.36405389 41.09309194 54.36405389 36 52 C31.71 51.67 27.42 51.34 23 51 C23 64.2 23 77.4 23 91 C27.125 91.020625 31.25 91.04125 35.5 91.0625 C37.42682617 91.10709351 37.42682617 91.10709351 39.39257812 91.15258789 C44.14357045 91.06943813 47.66368415 90.9920766 51.56079102 88.09887695 C58.85220047 80.15037605 60.35328325 71.48127151 61 61 C63.31 61 65.62 61 68 61 C68 72.55 68 84.1 68 96 C45.56 96 23.12 96 0 96 C0 94.02 0 92.04 0 90 C2.31 90 4.62 90 7 90 C7 61.95 7 33.9 7 5 C4.69 5 2.38 5 0 5 C0 3.35 0 1.7 0 0 Z " fill="#F5F5F5" transform="translate(975,47)"/>
<path d="M0 0 C3.63 0 7.26 0 11 0 C11.75612067 1.89340053 12.50444038 3.78991604 13.25 5.6875 C13.66765625 6.74324219 14.0853125 7.79898438 14.515625 8.88671875 C16.16544478 13.28946195 17.48254783 17.78881673 18.84863281 22.28588867 C20.79240953 28.55617603 22.88879614 34.77519219 24.97497559 40.99926758 C25.76554251 43.35889006 26.55347915 45.71937749 27.34082031 48.08007812 C29.73026943 55.24049165 32.13045584 62.39690268 34.5625 69.54296875 C34.93665039 70.64793701 35.31080078 71.75290527 35.69628906 72.89135742 C36.3805988 74.91019799 37.06977632 76.92739749 37.76464844 78.94262695 C38.0640332 79.82781006 38.36341797 80.71299316 38.671875 81.625 C38.9306543 82.38039063 39.18943359 83.13578125 39.45605469 83.9140625 C40 86 40 86 40 90 C41.98 90 43.96 90 46 90 C46 91.32 46 92.64 46 94 C36.1 94 26.2 94 16 94 C16 92.68 16 91.36 16 90 C18.64 90 21.28 90 24 90 C23.76289307 89.31486328 23.52578613 88.62972656 23.28149414 87.92382812 C22.20042771 84.78526525 21.13139312 81.6427285 20.0625 78.5 C19.68931641 77.42234375 19.31613281 76.3446875 18.93164062 75.234375 C18.57392578 74.17734375 18.21621094 73.1203125 17.84765625 72.03125 C17.51773682 71.06767578 17.18781738 70.10410156 16.84790039 69.11132812 C16 66 16 66 15 58 C5.76 58 -3.48 58 -13 58 C-13.99 61.3 -14.98 64.6 -16 68 C-16.60196273 69.93160229 -17.20885234 71.86168846 -17.82421875 73.7890625 C-18.13037109 74.74941406 -18.43652344 75.70976563 -18.75195312 76.69921875 C-19.06068359 77.66472656 -19.36941406 78.63023438 -19.6875 79.625 C-20.16799805 81.13126953 -20.16799805 81.13126953 -20.65820312 82.66796875 C-21.43803711 85.11222453 -22.21864745 87.55622932 -23 90 C-20.36 90 -17.72 90 -15 90 C-15 91.32 -15 92.64 -15 94 C-21.93 94 -28.86 94 -36 94 C-36 92.68 -36 91.36 -36 90 C-33.69 90 -31.38 90 -29 90 C-27.34018568 85.10354775 -25.74687792 80.19873002 -24.25 75.25 C-22.17203013 68.44065256 -19.91838172 61.69410496 -17.63769531 54.95019531 C-15.69301398 49.17380434 -13.87388728 43.36699334 -12.09326172 37.53808594 C-10.06184449 30.96387903 -7.93141468 24.4214167 -5.8125 17.875 C-5.35734251 16.46617147 -4.90226401 15.05731742 -4.44726562 13.6484375 C-1.21806567 3.65419702 -1.21806567 3.65419702 0 0 Z " fill="#F1F1F1" transform="translate(718,47)"/>
<path d="M0 0 C20.35218369 -2.35138987 20.35218369 -2.35138987 25.85888672 1.19824219 C28.88242916 4.5634098 30.47310215 8.67392657 32.10449219 12.84570312 C33.55498023 16.33509965 35.53387545 19.46962543 37.5 22.6875 C38.32165413 24.08775528 39.14187481 25.48885232 39.9609375 26.890625 C42.40627812 31.02941954 44.90503477 35.13404523 47.4140625 39.234375 C47.80072083 39.86716873 48.18737915 40.49996246 48.58575439 41.15193176 C50.53927753 44.34846105 52.49743199 47.54199673 54.46289062 50.73120117 C55.18638341 51.91313517 55.90969876 53.09517781 56.6328125 54.27734375 C57.28137207 55.33171631 57.92993164 56.38608887 58.59814453 57.47241211 C60 60 60 60 60 62 C60.66 62 61.32 62 62 62 C62 42.86 62 23.72 62 4 C59.69 4 57.38 4 55 4 C55 2.68 55 1.36 55 0 C61.27 0 67.54 0 74 0 C74 1.65 74 3.3 74 5 C72.02 5 70.04 5 68 5 C68 34.37 68 63.74 68 94 C65.69 94 63.38 94 61 94 C60.67837891 93.43192627 60.35675781 92.86385254 60.02539062 92.27856445 C58.51937155 89.62181575 57.00969219 86.96716306 55.5 84.3125 C54.9946875 83.41982422 54.489375 82.52714844 53.96875 81.60742188 C50.48382849 75.48702847 46.84960176 69.4758329 43.14208984 63.48803711 C39.19433234 57.08686906 35.3917535 50.59743453 31.5625 44.125 C30.35905522 42.09252632 29.15527869 40.0602504 27.95101929 38.02825928 C27.15808545 36.68997245 26.3657796 35.35131332 25.5741272 34.01226807 C23.53589948 30.56927378 21.48065362 27.13798 19.39794922 23.72167969 C18.7700071 22.68815872 18.7700071 22.68815872 18.12937927 21.63375854 C17.32783948 20.31646829 16.52270221 19.00135845 15.71351624 17.68875122 C13 13.2226975 13 13.2226975 13 11 C12.34 11 11.68 11 11 11 C11 37.07 11 63.14 11 90 C13.31 90 15.62 90 18 90 C18 91.32 18 92.64 18 94 C11.73 94 5.46 94 -1 94 C-1 92.68 -1 91.36 -1 90 C1.31 90 3.62 90 6 90 C6 61.62 6 33.24 6 4 C4.02 4 2.04 4 0 4 C0 2.68 0 1.36 0 0 Z " fill="#F5F5F5" transform="translate(1070,47)"/>
<path d="M0 0 C3.63 0 7.26 0 11 0 C12.43837416 4.14553056 13.87553955 8.29147922 15.3125 12.4375 C15.91868164 14.18450195 15.91868164 14.18450195 16.53710938 15.96679688 C19.71183535 25.12962388 22.80157306 34.30487526 25.6875 43.5625 C28.40349748 52.2368757 31.26728404 60.85834879 34.19604492 69.46313477 C36.37398661 75.91817974 38.28046898 82.40806249 40 89 C41.98 89.33 43.96 89.66 46 90 C46 91.32 46 92.64 46 94 C36.1 94 26.2 94 16 94 C16 92.68 16 91.36 16 90 C18.64 90 21.28 90 24 90 C23.69707031 89.10168457 23.39414063 88.20336914 23.08203125 87.27783203 C21.96146451 83.95017981 20.84358873 80.62164904 19.72753906 77.29248047 C19.24359309 75.85071123 18.75857161 74.40930254 18.27246094 72.96826172 C17.57465288 70.89904721 16.88070002 68.82857457 16.1875 66.7578125 C15.76855469 65.5114502 15.34960938 64.26508789 14.91796875 62.98095703 C14 60 14 60 14 58 C4.76 58 -4.48 58 -14 58 C-14.33 60.31 -14.66 62.62 -15 65 C-15.39866016 66.47216534 -15.84002594 67.93403405 -16.33984375 69.375 C-16.59830078 70.13296875 -16.85675781 70.8909375 -17.12304688 71.671875 C-17.39181641 72.44015625 -17.66058594 73.2084375 -17.9375 74 C-19.76609402 79.30336756 -21.5108936 84.59029946 -23 90 C-20.69 90 -18.38 90 -16 90 C-16 91.32 -16 92.64 -16 94 C-22.6 94 -29.2 94 -36 94 C-36 92.68 -36 91.36 -36 90 C-32.535 89.505 -32.535 89.505 -29 89 C-28.79246094 88.31679687 -28.58492188 87.63359375 -28.37109375 86.9296875 C-26.10116512 79.50255699 -23.78039184 72.09190481 -21.4375 64.6875 C-20.99845337 63.29217041 -20.99845337 63.29217041 -20.55053711 61.86865234 C-19.28577015 57.88308707 -18.00198408 53.92406412 -16.50390625 50.01953125 C-14.61343142 45.08478535 -13.0733403 40.04293355 -11.5 35 C-8.20996873 24.4546596 -8.20996873 24.4546596 -6.4140625 19.73828125 C-5.09413654 16.24886374 -3.95096265 12.7585099 -2.875 9.1875 C-1.94500111 6.11273623 -1.01583846 3.04751537 0 0 Z " fill="#F2F2F2" transform="translate(155,47)"/>
<path d="M0 0 C9.9 0 19.8 0 30 0 C30 1.32 30 2.64 30 4 C27.36 4 24.72 4 22 4 C22.06128129 13.41459515 22.13843784 22.82888872 22.23571491 32.24318123 C22.28039182 36.61490145 22.31965377 40.98652906 22.34643555 45.35839844 C22.37249539 49.57960838 22.41291653 53.80046143 22.46318626 58.02145004 C22.4798369 59.62969388 22.49136241 61.23799942 22.49761391 62.84631729 C22.5072749 65.10381499 22.53535629 67.36040335 22.56762695 69.61767578 C22.57873001 70.90118927 22.58983307 72.18470276 22.60127258 73.5071106 C23.19620316 78.718758 25.09326611 81.95725602 28.5 85.875 C32.13954741 88.66350896 35.78349493 88.70295127 40.24609375 88.484375 C46.15524451 87.44503501 49.765438 84.55111636 53.4375 79.9375 C55.92685385 75.25751476 56.13770569 71.50532626 56.20532227 66.21191406 C56.21522186 65.53833359 56.22512146 64.86475311 56.23532104 64.17076111 C56.26681658 61.95241771 56.29164597 59.73405293 56.31640625 57.515625 C56.33698611 55.97433934 56.35798285 54.4330592 56.37937927 52.89178467 C56.4344934 48.84108962 56.48394954 44.79034453 56.53222656 40.73956299 C56.58251956 36.60367394 56.63816487 32.46785728 56.69335938 28.33203125 C56.80081052 20.22141543 56.90228428 12.11073893 57 4 C55.35 4 53.7 4 52 4 C52 2.68 52 1.36 52 0 C57.61 0 63.22 0 69 0 C69 1.65 69 3.3 69 5 C67.35 5 65.7 5 64 5 C64.00222061 5.82161621 64.00444122 6.64323242 64.00672913 7.48974609 C64.02682037 15.25737799 64.04201904 23.02499716 64.05181217 30.79264832 C64.05701626 34.78544225 64.06406868 38.77821459 64.07543945 42.77099609 C64.08635663 46.62892874 64.09229545 50.48684069 64.09487724 54.3447876 C64.09671564 55.81187261 64.10030541 57.27895658 64.10573006 58.74603271 C64.18645237 81.49527684 64.18645237 81.49527684 55 91 C47.61538757 96.69982678 39.86016789 98.09676747 30.77734375 97.5078125 C22.04165775 96.33341831 16.81659948 92.63656395 11.47265625 85.76953125 C6.59724183 76.60064843 6.59545975 67.28665742 6.70703125 57.1484375 C6.71263835 55.6381574 6.71690317 54.12787178 6.71989441 52.61758423 C6.73125565 48.67527752 6.76064564 44.73331141 6.79400635 40.7911377 C6.82489726 36.75533656 6.83844006 32.71947947 6.85351562 28.68359375 C6.88552545 20.78890758 6.93661367 12.89449636 7 5 C4.69 5 2.38 5 0 5 C0 3.35 0 1.7 0 0 Z " fill="#F2F2F2" transform="translate(776,47)"/>
<path d="M0 0 C9.57 0 19.14 0 29 0 C29 1.32 29 2.64 29 4 C26.69 4 24.38 4 22 4 C22 32.38 22 60.76 22 90 C40.74017632 90.69035166 40.74017632 90.69035166 50 84 C56.47248644 75.83903884 56.31600375 66.03534791 57 56 C59.31 56 61.62 56 64 56 C64 68.54 64 81.08 64 94 C42.88 94 21.76 94 0 94 C0 92.68 0 91.36 0 90 C2.31 90 4.62 90 7 90 C7 61.62 7 33.24 7 4 C4.69 4 2.38 4 0 4 C0 2.68 0 1.36 0 0 Z " fill="#FCFCFC" transform="translate(228,47)"/>
<path d="M0 0 C25.56097561 0 25.56097561 0 31.9375 5.5625 C32.9584375 6.7690625 32.9584375 6.7690625 34 8 C34.66 8.66 35.32 9.32 36 10 C38.00554848 15.50113474 38.31792522 20.49125044 38.25 26.3125 C38.23876099 27.57163208 38.23876099 27.57163208 38.22729492 28.85620117 C37.93893413 45.47641481 37.93893413 45.47641481 32.6953125 50.75 C22.85417463 58.00613852 12.13114041 56 0 56 C0 37.52 0 19.04 0 0 Z " fill="#050505" transform="translate(36,16)"/>
<path d="M0 0 C17.17142857 0 17.17142857 0 23 4 C26.429471 9.1442065 26.20830113 14.43807568 26.25 20.4375 C26.270625 21.17548828 26.29125 21.91347656 26.3125 22.67382812 C26.34697643 27.52207616 25.67374789 30.79839617 23 35 C15.31753243 40.56978899 10.70060446 39 0 39 C0 26.13 0 13.26 0 0 Z " fill="#070707" transform="translate(340,52)"/>
<path d="M0 0 C18 0 18 0 24 5 C27.38253766 12.05835893 27.16159234 22.1658283 25.34765625 29.71484375 C23.83446144 33.20233565 22.30428839 34.78361714 19.1875 37 C15 38 15 38 0 38 C0 25.46 0 12.92 0 0 Z " fill="#040404" transform="translate(894,53)"/>
<path d="M0 0 C2.31 0 4.62 0 7 0 C7 12.54 7 25.08 7 38 C-6.2 38 -19.4 38 -33 38 C-32.01 37.505 -32.01 37.505 -31 37 C-30.67 36.01 -30.34 35.02 -30 34 C-28.515 33.97873047 -28.515 33.97873047 -27 33.95703125 C-16.02659889 33.70117231 -16.02659889 33.70117231 -7 28 C-0.18951531 20.52250908 -0.65126901 9.55518564 0 0 Z " fill="#F1F1F1" transform="translate(285,103)"/>
<path d="M0 0 C2 1 2 1 2.82202148 2.99023438 C3.08571533 3.84939453 3.34940918 4.70855469 3.62109375 5.59375 C3.91693359 6.5425 4.21277344 7.49125 4.51757812 8.46875 C4.82115234 9.4690625 5.12472656 10.469375 5.4375 11.5 C6.03980198 13.4480907 6.64266067 15.39600937 7.24609375 17.34375 C7.53726074 18.29378906 7.82842773 19.24382812 8.12841797 20.22265625 C9.17380365 23.55383482 10.30544435 26.85099207 11.46899414 30.14257812 C12 32 12 32 12 35 C4.41 35 -3.18 35 -11 35 C-9.60865526 28.73894867 -8.11774213 22.98781205 -6 17 C-5.49077307 15.55082072 -4.98167011 14.10159788 -4.47265625 12.65234375 C-2.98819417 8.43260656 -1.49561537 4.21579608 0 0 Z " fill="#0B0B0B" transform="translate(155,65)"/>
<path d="M0 0 C2 1 2 1 3.03735352 3.68041992 C3.39756592 4.85193604 3.75777832 6.02345215 4.12890625 7.23046875 C4.32346909 7.85850906 4.51803192 8.48654938 4.7184906 9.13362122 C5.12970017 10.46662169 5.53715365 11.80078569 5.94116211 13.13598633 C6.55551331 15.16443157 7.18196036 17.18881734 7.81054688 19.21289062 C9.53096262 24.81342608 11.03314572 30.19887435 12 36 C4.74 36 -2.52 36 -10 36 C-8.87546458 27.00371662 -8.87546458 27.00371662 -7.44140625 22.87109375 C-7.13783203 21.98099609 -6.83425781 21.09089844 -6.52148438 20.17382812 C-6.20501953 19.27083984 -5.88855469 18.36785156 -5.5625 17.4375 C-4.93743546 15.62416842 -4.31370869 13.81037508 -3.69140625 11.99609375 C-3.25272217 10.71968018 -3.25272217 10.71968018 -2.80517578 9.41748047 C-1.76758826 6.30220101 -0.86458826 3.16726049 0 0 Z " fill="#0A0A0A" transform="translate(718,64)"/>
<path d="M0 0 C2.31 0 4.62 0 7 0 C7 0.99 7 1.98 7 3 C7.66 3.33 8.32 3.66 9 4 C6.03 4 3.06 4 0 4 C0 2.68 0 1.36 0 0 Z " fill="#F7F7F7" transform="translate(228,137)"/>
<path d="M0 0 C0 1.32 0 2.64 0 4 C-2.97 3.505 -2.97 3.505 -6 3 C-4.60722783 0.21445565 -3.01148006 0 0 0 Z " fill="#EAEAEA" transform="translate(764,137)"/>
</svg>
